<svg width="204" height="204" viewBox="0 0 204 204" fill="none" xmlns="http://www.w3.org/2000/svg">
<path d="M195.281 5.68304V42.4616H142.458L140.554 5.93744L195.281 5.68304Z" fill="#E0E0E0"/>
<path d="M140.554 5.93745V42.3843H193.378V5.93745H140.554Z" fill="white"/>
<path d="M193.632 42.6342H140.304V5.68759H193.632V42.6342ZM140.804 42.1345H193.128V6.1873H140.804V42.1345Z" fill="#E0E0E0"/>
<path d="M187.658 10.4666H146.278V37.8552H187.658V10.4666Z" fill="white"/>
<path d="M187.658 10.4666H187.454H186.868H184.596L176.07 10.4984L146.282 10.5575L146.401 10.4393C146.401 18.8072 146.401 28.079 146.401 37.8233L146.273 37.6916L187.654 37.7189L187.549 37.8233C187.572 29.4873 187.59 22.6549 187.604 17.8941C187.604 15.5182 187.626 13.6602 187.631 12.3837C187.631 11.7567 187.631 11.2752 187.631 10.939C187.631 10.6074 187.631 10.4348 187.631 10.4348C187.631 10.4348 187.631 10.5938 187.631 10.9163C187.631 11.2389 187.631 11.7249 187.631 12.3428C187.631 13.6148 187.631 15.4637 187.658 17.8305C187.658 22.605 187.69 29.46 187.713 37.8188V37.9233H187.608L146.228 37.9505H146.096V37.8188C146.096 28.0745 146.096 18.8026 146.096 10.4348V10.3167H146.219L176.17 10.4075L184.669 10.4393H186.918H187.49L187.658 10.4666Z" fill="#E0E0E0"/>
<path d="M140.554 5.83749C140.88 5.9946 141.185 6.19143 141.463 6.42352C142.003 6.8142 142.739 7.36842 143.534 8.00441C144.329 8.6404 145.029 9.24005 145.519 9.69433C145.804 9.91808 146.059 10.1776 146.278 10.4666C145.271 9.75875 144.301 9.00066 143.371 8.19521C142.384 7.46798 141.444 6.68058 140.554 5.83749Z" fill="#E0E0E0"/>
<path d="M193.382 5.93747C192.512 6.79052 191.583 7.58139 190.602 8.30427C189.673 9.09299 188.689 9.81556 187.658 10.4666C188.528 9.61238 189.457 8.82142 190.439 8.09984C191.368 7.31112 192.352 6.58855 193.382 5.93747Z" fill="#E0E0E0"/>
<path d="M193.337 42.3889L187.431 37.6144L193.337 42.3889Z" fill="white"/>
<path d="M187.449 37.6144C188.508 38.3025 189.519 39.0614 190.475 39.8858C191.485 40.649 192.441 41.4808 193.337 42.3752C192.278 41.6871 191.268 40.9283 190.311 40.1038C189.301 39.3406 188.345 38.5089 187.449 37.6144Z" fill="#E0E0E0"/>
<path d="M140.554 42.3843C141.415 41.5382 142.335 40.7548 143.307 40.0402C144.224 39.2581 145.197 38.5444 146.219 37.9051C145.359 38.7503 144.439 39.5321 143.466 40.2446C142.548 41.0273 141.575 41.7424 140.554 42.3843Z" fill="#E0E0E0"/>
<path d="M154.678 18.998V28.1699H180.717V18.998H154.678Z" fill="#E0E0E0"/>
<path d="M156.944 202.791H203.781L203.781 66.8473H156.944V202.791Z" fill="#E0E0E0"/>
<path d="M131.805 202.791H183.084L183.084 66.8473H131.805V202.791Z" fill="#F5F5F5"/>
<path d="M163.286 171.068H149.585C149.326 171.068 149.078 170.965 148.895 170.782C148.711 170.599 148.608 170.351 148.608 170.092V169.278H164.263V170.092C164.263 170.351 164.16 170.599 163.977 170.782C163.794 170.965 163.545 171.068 163.286 171.068Z" fill="#E0E0E0"/>
<path d="M134.072 169.278C134.072 169.278 134.072 169.442 134.072 169.769C134.072 170.096 134.072 170.591 134.072 171.227C134.072 172.522 134.072 174.407 134.044 176.838C134.044 181.721 134.012 188.744 133.99 197.344V197.448H134.094L179.79 197.476H179.945V197.344C179.945 187.413 179.945 177.941 179.945 169.319V169.201H179.804L146.832 169.228L137.424 169.251H134.93H134.29H134.081H134.308H134.957H137.474L146.914 169.292L179.804 169.383L179.681 169.26C179.681 177.891 179.681 187.354 179.681 197.285L179.813 197.158H179.786L134.09 197.185L134.19 197.285C134.167 188.712 134.149 181.707 134.135 176.842C134.135 174.407 134.135 172.508 134.112 171.209C134.112 170.564 134.112 170.073 134.112 169.733C134.112 169.392 134.072 169.278 134.072 169.278Z" fill="#E0E0E0"/>
<path d="M149.226 179.813H162.832V176.138H149.226V179.813Z" fill="#E0E0E0"/>
<path d="M163.909 138.36H150.212C149.953 138.36 149.705 138.257 149.521 138.074C149.338 137.891 149.235 137.642 149.235 137.383V136.57H164.885V137.383C164.885 137.642 164.782 137.891 164.599 138.074C164.416 138.257 164.168 138.36 163.909 138.36Z" fill="#E0E0E0"/>
<path d="M134.198 136.566C134.198 136.566 134.198 136.729 134.198 137.056C134.198 137.383 134.198 137.883 134.198 138.514C134.198 139.809 134.198 141.694 134.171 144.125C134.171 149.008 134.139 156.032 134.117 164.636V164.736H134.221L179.917 164.763H180.072V164.636C180.072 154.7 180.072 145.229 180.072 136.611V136.488H179.954L146.982 136.516L137.574 136.543H135.08H134.439H134.23H134.457H135.107H137.624L147.064 136.588L179.954 136.675L179.831 136.557C179.831 145.188 179.831 154.646 179.831 164.581L179.963 164.449H179.935L134.239 164.477L134.339 164.581C134.317 156.004 134.298 149.004 134.285 144.138C134.285 141.704 134.285 139.805 134.285 138.505C134.285 137.865 134.285 137.37 134.285 137.029C134.285 136.688 134.198 136.566 134.198 136.566Z" fill="#E0E0E0"/>
<path d="M150.253 146.882H163.859V143.207H150.253V146.882Z" fill="#E0E0E0"/>
<path d="M163.313 72.3486H149.612C149.353 72.3486 149.105 72.2457 148.922 72.0626C148.738 71.8794 148.636 71.631 148.636 71.3719V70.5588H164.29V71.3719C164.29 71.5002 164.265 71.6272 164.216 71.7457C164.167 71.8642 164.095 71.9719 164.004 72.0626C163.913 72.1533 163.806 72.2252 163.687 72.2743C163.569 72.3234 163.442 72.3486 163.313 72.3486Z" fill="#E0E0E0"/>
<path d="M134.094 70.5542C134.094 70.5542 134.094 70.7178 134.094 71.0448C134.094 71.3719 134.094 71.8716 134.094 72.5031C134.094 73.7978 134.094 75.683 134.071 78.1134C134.071 82.9969 134.04 90.0201 134.017 98.6242V98.7241H134.117L179.817 98.7559H179.972V98.6242C179.972 88.6891 179.972 79.2173 179.972 70.5996V70.477H179.804L146.837 70.5042L137.424 70.5315H134.93H134.294H134.08C134.156 70.5355 134.232 70.5355 134.308 70.5315H134.957H137.478L146.914 70.5724L179.804 70.6587L179.681 70.5406C179.681 79.1719 179.681 88.63 179.681 98.5651L179.813 98.4334L134.112 98.4606L134.217 98.5651C134.194 89.9883 134.176 82.9879 134.162 78.1225C134.162 75.6876 134.14 73.7887 134.135 72.4895C134.135 71.8489 134.135 71.3538 134.135 71.013C134.135 70.6723 134.094 70.5542 134.094 70.5542Z" fill="#E0E0E0"/>
<path d="M149.904 80.2122H163.509V76.5371H149.904V80.2122Z" fill="#E0E0E0"/>
<path d="M163.314 105.343H149.613C149.354 105.343 149.105 105.24 148.922 105.057C148.739 104.874 148.636 104.625 148.636 104.366V103.526H164.29V104.339C164.294 104.47 164.271 104.599 164.224 104.721C164.177 104.843 164.105 104.954 164.014 105.047C163.923 105.141 163.814 105.215 163.694 105.266C163.574 105.317 163.444 105.343 163.314 105.343Z" fill="#E0E0E0"/>
<path d="M134.094 103.535C134.094 103.535 134.094 103.698 134.094 104.026C134.094 104.353 134.094 104.848 134.094 105.484C134.094 106.779 134.094 108.664 134.071 111.094C134.071 115.978 134.04 123.001 134.017 131.6V131.7H134.117L179.817 131.728H179.972V131.596C179.972 121.665 179.972 112.194 179.972 103.571V103.453H179.804L146.837 103.48H137.424H134.93H134.294H134.08H134.308H134.957H137.478L146.914 103.521L179.804 103.612L179.681 103.49C179.681 112.121 179.681 121.583 179.681 131.514L179.813 131.387L134.112 131.414L134.217 131.514C134.194 122.942 134.176 115.937 134.162 111.071C134.162 108.637 134.14 106.738 134.135 105.438C134.135 104.793 134.135 104.303 134.135 103.962C134.135 103.621 134.094 103.535 134.094 103.535Z" fill="#E0E0E0"/>
<path d="M149.904 113.197H163.509V109.522H149.904V113.197Z" fill="#E0E0E0"/>
<path d="M59.7057 4.76538H10.6025V48.6943H59.7057V4.76538Z" fill="#FAFAFA"/>
<path d="M59.7061 48.6943C59.7061 48.6943 59.7061 48.4126 59.7061 47.8766C59.7061 47.3405 59.7061 46.5501 59.7061 45.5234C59.7061 43.461 59.7061 40.4491 59.6743 36.6059C59.6743 28.9331 59.6425 17.9804 59.6198 4.7654L59.7288 4.87442H10.6302L10.762 4.74268C10.762 20.7242 10.762 35.7609 10.762 48.6716L10.6438 48.5534L46.1595 48.6125L56.1763 48.6443H58.8293H59.5107H59.747H59.5244H58.852H56.2263L46.2321 48.6716L10.6438 48.7306H10.5303V48.617C10.5303 35.7064 10.5303 20.6697 10.5303 4.68817V4.55643H10.6666H59.7651H59.8787V4.67C59.8514 17.8986 59.8333 28.8877 59.8197 36.5832C59.8197 40.4127 59.7969 43.3974 59.7924 45.4734C59.7924 46.491 59.7924 47.2905 59.7924 47.8084C59.7924 48.3263 59.7061 48.6943 59.7061 48.6943Z" fill="#E0E0E0"/>
<path d="M29.4371 12.5699C29.4371 12.6426 26.8522 12.7017 23.6632 12.7017C20.4741 12.7017 17.8938 12.6426 17.8938 12.5699C17.8938 12.4972 20.4741 12.4382 23.6632 12.4382C26.8522 12.4382 29.4371 12.4972 29.4371 12.5699Z" fill="#E0E0E0"/>
<path d="M50.2386 15.8589C50.2386 15.9316 43.1382 15.9907 34.3797 15.9907C25.6212 15.9907 18.5344 15.9407 18.5344 15.8589C18.5344 15.7772 25.6348 15.7272 34.3933 15.7272C43.1519 15.7272 50.2386 15.7953 50.2386 15.8589Z" fill="#E0E0E0"/>
<path d="M20.0382 21.4557H17.9712V23.5226H20.0382V21.4557Z" fill="#E0E0E0"/>
<path d="M25.1307 21.4557H23.0637V23.5226H25.1307V21.4557Z" fill="#E0E0E0"/>
<path d="M30.3187 21.3603H28.2517V23.4272H30.3187V21.3603Z" fill="#E0E0E0"/>
<path d="M35.3158 21.4557H33.2488V23.5226H35.3158V21.4557Z" fill="#E0E0E0"/>
<path d="M40.4083 21.4557H38.3413V23.5226H40.4083V21.4557Z" fill="#E0E0E0"/>
<path d="M45.5003 21.4557H43.4333V23.5226H45.5003V21.4557Z" fill="#E0E0E0"/>
<path d="M50.5931 21.4557H48.5261V23.5226H50.5931V21.4557Z" fill="#EBEBEB"/>
<path d="M20.0382 25.8531H17.9712V27.92H20.0382V25.8531Z" fill="#EBEBEB"/>
<path d="M25.1307 25.8531H23.0637V27.92H25.1307V25.8531Z" fill="#E0E0E0"/>
<path d="M30.223 25.8531H28.156V27.92H30.223V25.8531Z" fill="#EBEBEB"/>
<path d="M35.3158 25.8531H33.2488V27.92H35.3158V25.8531Z" fill="#E0E0E0"/>
<path d="M40.4083 25.8531H38.3413V27.92H40.4083V25.8531Z" fill="#E0E0E0"/>
<path d="M45.5914 25.7577H43.5244V27.8246H45.5914V25.7577Z" fill="#E0E0E0"/>
<path d="M50.5931 25.8531H48.5261V27.92H50.5931V25.8531Z" fill="#E0E0E0"/>
<path d="M20.0382 30.2505H17.9712V32.3175H20.0382V30.2505Z" fill="#E0E0E0"/>
<path d="M25.2259 30.1551H23.1589V32.2221H25.2259V30.1551Z" fill="#E0E0E0"/>
<path d="M30.223 30.2505H28.156V32.3175H30.223V30.2505Z" fill="#E0E0E0"/>
<path d="M35.3158 30.2505H33.2488V32.3175H35.3158V30.2505Z" fill="#EBEBEB"/>
<path d="M40.4083 30.2505H38.3413V32.3175H40.4083V30.2505Z" fill="#E0E0E0"/>
<path d="M45.5003 30.2505H43.4333V32.3175H45.5003V30.2505Z" fill="#E0E0E0"/>
<path d="M50.5931 30.2505H48.5261V32.3175H50.5931V30.2505Z" fill="#E0E0E0"/>
<path d="M20.0382 34.6479H17.9712V36.7149H20.0382V34.6479Z" fill="#E0E0E0"/>
<path d="M25.1307 34.6479H23.0637V36.7149H25.1307V34.6479Z" fill="#E0E0E0"/>
<path d="M30.223 34.6479H28.156V36.7149H30.223V34.6479Z" fill="#E0E0E0"/>
<path d="M35.411 34.5571H33.344V36.624H35.411V34.5571Z" fill="#E0E0E0"/>
<path d="M40.4083 34.6479H38.3413V36.7149H40.4083V34.6479Z" fill="#E0E0E0"/>
<path d="M45.5003 34.6479H43.4333V36.7149H45.5003V34.6479Z" fill="#EBEBEB"/>
<path d="M50.5931 34.6479H48.5261V36.7149H50.5931V34.6479Z" fill="#E0E0E0"/>
<path d="M20.0382 39.0454H17.9712V41.1124H20.0382V39.0454Z" fill="#E0E0E0"/>
<path d="M25.1307 39.0454H23.0637V41.1124H25.1307V39.0454Z" fill="#EBEBEB"/>
<path d="M30.223 39.0454H28.156V41.1124H30.223V39.0454Z" fill="#E0E0E0"/>
<path d="M35.3158 39.0454H33.2488V41.1124H35.3158V39.0454Z" fill="#E0E0E0"/>
<path d="M40.4083 39.0454H38.3413V41.1124H40.4083V39.0454Z" fill="#E0E0E0"/>
<path d="M45.5914 38.9545H43.5244V41.0215H45.5914V38.9545Z" fill="#E0E0E0"/>
<path d="M50.5931 39.0454H48.5261V41.1124H50.5931V39.0454Z" fill="#E0E0E0"/>
<path d="M100.981 70.173L84.0476 76.5481L88.3451 87.9634L105.279 81.5883L100.981 70.173Z" fill="#EBEBEB"/>
<path d="M101.086 70.2998C101.062 70.3746 101.028 70.4463 100.986 70.5133L100.673 71.1039C100.382 71.6263 99.978 72.3622 99.4828 73.2617C98.4562 75.0788 97.0479 77.5955 95.4943 80.3712L95.4624 80.4302H95.3943L95.2399 80.3803L87.3899 77.8045L85.014 77.005L84.3735 76.7824C84.2963 76.7599 84.2217 76.7294 84.1509 76.6915C84.2293 76.7061 84.3067 76.7258 84.3826 76.7506L85.0367 76.9459L87.4262 77.6955L95.308 80.2031L95.4624 80.2531L95.3625 80.294C96.9389 77.5274 98.3562 75.0289 99.3965 73.2072L100.628 71.0721L100.973 70.4951C101.005 70.4268 101.043 70.3614 101.086 70.2998Z" fill="#E0E0E0"/>
<path d="M88.4483 88.0894C88.4074 88.0894 89.0888 86.0315 89.9792 83.5239C90.8696 81.0163 91.6192 78.9811 91.66 79.0129C91.7009 79.0447 91.0195 81.0754 90.1337 83.5557C89.2478 86.0361 88.4937 88.0894 88.4483 88.0894Z" fill="#E0E0E0"/>
<path d="M97.2385 76.7552C97.2612 76.7143 99.1056 77.7955 101.354 79.1628C103.603 80.5302 105.406 81.675 105.384 81.7159C105.361 81.7568 103.517 80.6756 101.268 79.3037C99.0193 77.9317 97.2158 76.7915 97.2385 76.7552Z" fill="#E0E0E0"/>
<path d="M122.91 34.1437C123.343 33.8812 123.809 33.678 124.296 33.5395L124.582 32.1767L126.899 32.1358L127.235 33.4986C127.726 33.6185 128.198 33.805 128.638 34.0528L129.811 33.2851L131.478 34.8933L130.751 36.0926C131.013 36.5174 131.216 36.9758 131.355 37.4554L132.718 37.737L132.759 40.0584L131.396 40.39C131.275 40.8814 131.09 41.3548 130.846 41.7983L131.614 42.9658L130.001 44.633L128.807 43.9107C128.373 44.17 127.907 44.3715 127.421 44.5104L127.135 45.8732L124.818 45.9141L124.482 44.5512C123.991 44.4293 123.519 44.243 123.078 43.997L121.906 44.7648L120.239 43.1521L120.966 41.9573C120.702 41.525 120.499 41.0589 120.361 40.5718L118.999 40.2856L118.958 37.9687L120.321 37.6326C120.441 37.1424 120.626 36.6704 120.87 36.2288L120.103 35.0568L121.715 33.3896L122.91 34.1164V34.1437ZM124.146 37.2283C123.803 37.582 123.573 38.0295 123.484 38.5141C123.396 38.9987 123.453 39.4987 123.649 39.9506C123.845 40.4026 124.171 40.7864 124.585 41.0532C124.999 41.3201 125.483 41.4582 125.975 41.4499C126.468 41.4416 126.947 41.2874 127.352 41.0068C127.756 40.7261 128.069 40.3317 128.249 39.8734C128.43 39.4151 128.471 38.9135 128.366 38.4321C128.261 37.9507 128.016 37.5112 127.662 37.1692C127.428 36.9408 127.152 36.7607 126.849 36.6392C126.546 36.5176 126.222 36.457 125.895 36.4608C125.569 36.4646 125.246 36.5327 124.946 36.6613C124.646 36.7899 124.374 36.9763 124.146 37.2101V37.2283Z" fill="#E0E0E0"/>
<path d="M124.146 37.2101C124.275 37.0522 124.428 36.9157 124.6 36.8058C124.899 36.6116 125.236 36.4833 125.589 36.4293C125.942 36.3753 126.302 36.397 126.646 36.4928C126.989 36.5886 127.309 36.7563 127.582 36.9849C127.856 37.2136 128.079 37.4978 128.234 37.8188C128.459 38.2713 128.543 38.7809 128.475 39.2816C128.402 39.8209 128.16 40.3234 127.784 40.7171C127.406 41.1076 126.913 41.3671 126.376 41.4576C126.123 41.4984 125.866 41.4984 125.613 41.4576C125.368 41.4271 125.129 41.3597 124.904 41.2577C124.49 41.0696 124.132 40.7749 123.869 40.4037C123.643 40.0788 123.496 39.7053 123.442 39.3134C123.355 38.7468 123.471 38.1679 123.769 37.678C123.872 37.5068 124.003 37.3535 124.155 37.2237C124.155 37.2237 124.005 37.3872 123.814 37.7279C123.547 38.2139 123.451 38.7754 123.542 39.3225C123.601 39.6965 123.747 40.0513 123.969 40.3582C124.222 40.7086 124.564 40.9859 124.959 41.1623C125.171 41.2565 125.396 41.3193 125.627 41.3486C125.867 41.387 126.113 41.387 126.353 41.3486C126.86 41.2622 127.326 41.0173 127.685 40.649C128.04 40.2745 128.269 39.7978 128.339 39.2861C128.396 38.8199 128.319 38.3471 128.116 37.9233C127.928 37.5326 127.639 37.1988 127.28 36.9557C126.966 36.7459 126.606 36.6136 126.231 36.5695C125.682 36.4985 125.125 36.6137 124.65 36.8966C124.305 37.0738 124.159 37.2419 124.146 37.2101Z" fill="#E0E0E0"/>
<path d="M122.91 34.1437L122.833 34.1028L122.606 33.971L121.697 33.435H121.724L120.125 35.1158V35.0704L120.898 36.2379C120.655 36.6778 120.473 37.1484 120.357 37.6371V37.6643H120.33L118.967 38.005L119.003 37.9551C119.003 38.6819 119.035 39.4587 119.049 40.2719L119.008 40.2174L120.371 40.499H120.403V40.5308C120.541 41.0097 120.743 41.4679 121.002 41.8937V41.9255V41.9573L120.294 43.2156V43.1339L121.965 44.742H121.883L123.051 43.9697L123.087 43.947L123.124 43.9697C123.561 44.2122 124.028 44.3955 124.514 44.5149H124.555V44.5558L124.886 45.9186L124.818 45.8686L127.135 45.8277L127.067 45.8822C127.158 45.428 127.258 44.9737 127.353 44.5194V44.4785H127.394C127.874 44.3441 128.332 44.1438 128.757 43.8834H128.798H128.834L130.029 44.6103H129.942L131.551 42.9431V43.0294C131.292 42.6341 131.033 42.2435 130.783 41.8573L130.76 41.821V41.7846C131.005 41.3479 131.189 40.8804 131.31 40.3945V40.3537H131.351L132.714 40.022L132.664 40.0902C132.664 39.2997 132.65 38.5275 132.623 37.7734L132.677 37.8369L131.314 37.5462H131.278V37.5053C131.143 37.0268 130.944 36.5684 130.687 36.1425V36.1107V36.0789L131.414 34.8796V34.9523L129.752 33.3396H129.82L128.648 34.1028H128.62H128.593C128.155 33.8589 127.686 33.6741 127.199 33.5531H127.171V33.5258C127.053 33.0307 126.944 32.5855 126.84 32.163L126.885 32.1948L124.564 32.222H124.596C124.477 32.7672 124.382 33.2169 124.3 33.5849C123.934 33.6846 123.58 33.8216 123.242 33.9937L122.992 34.1209L122.906 34.1664C122.929 34.1449 122.955 34.1266 122.983 34.1119L123.228 33.971C123.565 33.7913 123.92 33.6467 124.287 33.5395C124.359 33.167 124.45 32.7172 124.559 32.1766V32.1494H124.586L126.903 32.0994H126.94V32.1312C127.044 32.5537 127.158 32.9989 127.28 33.494L127.244 33.4622C127.741 33.5826 128.219 33.769 128.666 34.0165H128.611L129.783 33.2487L129.82 33.2215L129.852 33.2533L131.519 34.8614L131.555 34.8932L131.528 34.9341L130.806 36.1334V36.0698C131.071 36.5063 131.276 36.977 131.414 37.469L131.369 37.4236L132.732 37.7052H132.782V37.7552C132.782 38.5093 132.813 39.2816 132.827 40.072V40.1265H132.773L131.41 40.4627L131.46 40.4127C131.338 40.9094 131.15 41.3876 130.901 41.8346V41.7528L131.673 42.9249L131.7 42.9703L131.664 43.0112L130.051 44.6784L130.015 44.7193L129.965 44.692L128.766 43.9652H128.839C128.402 44.2305 127.931 44.4353 127.439 44.5739L127.489 44.5194C127.389 44.9737 127.294 45.4598 127.203 45.8822V45.9413H127.149L124.832 45.9776H124.777V45.9231C124.659 45.4689 124.546 44.9873 124.441 44.5603L124.491 44.6103C123.995 44.4864 123.517 44.2985 123.069 44.0515H123.142L121.97 44.8192L121.924 44.8465L121.888 44.8101L120.221 43.1975L120.184 43.1657L120.212 43.1202C120.466 42.7023 120.711 42.2934 120.939 41.9255V41.9891C120.675 41.5505 120.472 41.0784 120.334 40.5853L120.375 40.6262L119.012 40.34H118.967V40.2946C118.967 39.4814 118.94 38.7092 118.931 37.9778V37.9369H118.967L120.33 37.6053L120.294 37.6643C120.416 37.1691 120.604 36.6924 120.852 36.247V36.2924C120.575 35.8699 120.321 35.4747 120.089 35.1158L121.706 33.4577L122.615 34.0028L122.837 34.1482C122.887 34.1209 122.91 34.1391 122.91 34.1437Z" fill="#E0E0E0"/>
<path d="M10.5846 198.171C9.75326 197.462 7.90434 195.204 9.33078 192.583C9.8532 191.624 10.9662 191.147 11.9701 190.725C12.9741 190.302 14.0326 189.934 14.8639 189.226C16.4357 187.89 16.8673 185.673 17.9076 183.893C19.1069 181.848 21.3374 180.313 23.6951 180.422C26.4208 180.544 28.6468 182.752 29.6689 185.264C30.691 187.777 30.7274 190.57 30.7455 193.287C30.7455 194.791 30.691 196.467 29.5871 197.498C28.5741 198.434 27.0432 198.443 25.6667 198.407L10.9071 197.952" fill="#F5F5F5"/>
<path d="M38.8091 157.594H0L6.99137 199.279C7.135 200.148 7.52255 200.958 8.10886 201.615C8.69518 202.272 9.45613 202.749 10.3031 202.99L10.4394 203.031C10.5529 203.059 10.6665 203.099 10.7846 203.118C11.0449 203.171 11.3094 203.201 11.5751 203.209V203.249L11.7659 203.218H29.0694C29.388 203.218 29.706 203.187 30.0188 203.127C31.031 202.969 31.9637 202.484 32.6735 201.746C33.3834 201.007 33.8312 200.056 33.9483 199.038L37.3146 170.314L37.469 169.169L38.8046 157.812L38.8091 157.594ZM31.4907 184.179H27.5067L27.9064 172.081H32.5219L31.4907 184.179ZM32.908 172.081H36.7058L35.2839 184.179H31.8768L32.908 172.081ZM21.551 197.594L21.3103 187.082H27.0251L26.6753 197.594H21.551ZM15.3274 187.082H20.9014L21.1422 197.594H16.1451L15.3274 187.082ZM15.7817 197.594H11.089C10.6347 194.754 10.0668 191.066 9.43994 187.082H14.9413L15.7817 197.594ZM15.1275 184.179L14.1872 172.081H20.5562L20.8333 184.179H15.1275ZM21.2421 184.179L20.965 172.081H27.5203L27.1205 184.179H21.2421ZM20.8969 169.187L20.6379 157.985H27.9927L27.6202 169.178L20.8969 169.187ZM20.5107 169.187H13.9373L13.0833 157.976H20.2336L20.5107 169.187ZM13.5375 169.178H6.61886C6.37355 167.634 6.14187 166.167 5.92835 164.849C5.20605 160.306 4.93348 158.616 4.78357 157.976H12.679L13.5375 169.178ZM13.7647 172.081L14.705 184.179H8.99474C8.7994 182.952 8.60406 181.712 8.40872 180.467L7.08677 172.081H13.7647ZM8.59498 184.179H4.84717L2.82108 172.081H6.687C7.27756 175.82 7.93627 179.981 8.59498 184.179ZM9.04926 187.082C9.62165 190.716 10.1804 194.305 10.6983 197.594H7.1004L5.33325 187.082H9.04926ZM27.0615 197.594L27.4113 187.082H31.2545L30.3459 197.594H27.0615ZM28.0018 169.178L28.3743 157.976H33.7257L32.7718 169.178H28.0018ZM4.4156 157.976C4.57006 158.784 5.27873 163.196 6.23272 169.178H2.335L0.45428 157.976H4.4156ZM33.7303 197.594H30.7275L31.6361 187.082H34.9705L33.7303 197.594ZM37.0647 169.178H33.1579L34.1164 157.976H38.3776L37.0647 169.178Z" fill="#E0E0E0"/>
<path d="M196.84 202.791C196.84 202.859 155.246 202.909 103.944 202.909C52.642 202.909 11.0391 202.859 11.0391 202.791C11.0391 202.722 52.6238 202.672 103.944 202.672C155.264 202.672 196.84 202.727 196.84 202.791Z" fill="#263238"/>
<path d="M157.267 99.3692C157.267 99.3692 162.632 93.1955 164.658 87.0173C166.684 80.8391 165.721 81.566 165.721 81.566C165.721 81.566 162.995 87.5624 160.915 90.4608C158.834 93.3591 155.141 97.6111 155.141 97.6111L157.267 99.3692Z" fill="#455A64"/>
<path d="M156.181 82.5108C156.218 82.4482 156.275 82.4001 156.343 82.3748C156.411 82.3495 156.486 82.3486 156.554 82.3722C156.623 82.3957 156.681 82.4424 156.719 82.5041C156.757 82.5658 156.773 82.6389 156.763 82.7107C156.436 84.8822 155.727 89.9792 155.754 93.2727C155.791 97.5611 155.754 99.2193 155.754 99.2193H153.519C153.519 99.2193 153.919 90.3517 154.428 87.6488C154.758 85.8595 155.349 84.1284 156.181 82.5108Z" fill="#455A64"/>
<path d="M154.982 98.5015C154.045 96.3809 153.425 94.1339 153.142 91.8327C152.961 90.2518 153.288 88.1167 153.774 85.2729C153.963 84.2234 154.059 83.1593 154.06 82.0929C154.058 81.9753 154.016 81.8617 153.943 81.7698C153.87 81.6778 153.768 81.6126 153.654 81.5842C153.539 81.5558 153.419 81.5657 153.311 81.6125C153.203 81.6593 153.114 81.7403 153.056 81.8431C152.516 82.84 152.098 83.8986 151.811 84.9958C151.271 87.8078 150.658 89.2115 151.125 91.8826C151.593 94.5538 153.324 98.656 153.324 98.656L154.982 98.5015Z" fill="#455A64"/>
<path d="M152.97 98.6787C152.97 98.6787 147.064 86.0179 146.669 84.1417C146.274 82.2655 144.874 77.9317 144.711 78.177C144.547 78.4223 144.302 80.7119 145.365 83.324C146.428 85.9361 150.957 99.0648 150.957 99.0648H152.97" fill="#455A64"/>
<path d="M155.627 98.1154C155.627 98.1154 155.686 98.079 155.791 98.0018C155.895 97.9246 156.054 97.811 156.245 97.652C156.795 97.2123 157.323 96.7453 157.826 96.2528C159.48 94.6193 160.913 92.7759 162.087 90.7697C163.267 88.7648 164.25 86.65 165.022 84.4552C165.322 83.6147 165.535 82.9288 165.676 82.4472C165.749 82.211 165.799 82.0248 165.83 81.8976C165.853 81.8343 165.868 81.7688 165.876 81.7022C165.876 81.7022 165.848 81.7658 165.808 81.8885L165.63 82.4336C165.476 82.8879 165.244 83.592 164.94 84.4279C164.151 86.607 163.166 88.7098 161.996 90.7106C160.823 92.7109 159.402 94.5547 157.767 96.1983C157.14 96.8252 156.599 97.3022 156.218 97.6247L155.763 97.9882C155.714 98.0265 155.669 98.0691 155.627 98.1154Z" fill="#263238"/>
<path d="M154.982 92.0416C155.011 91.9193 155.029 91.7947 155.037 91.6691C155.064 91.4057 155.1 91.0649 155.141 90.6516C155.237 89.7975 155.382 88.6164 155.595 87.3171C155.809 86.0179 156.05 84.8504 156.218 84.01L156.431 83.0106C156.464 82.8902 156.485 82.767 156.495 82.6426C156.45 82.76 156.412 82.8798 156.381 83.0015C156.318 83.2332 156.231 83.5693 156.127 83.9918C155.927 84.8277 155.673 85.9952 155.473 87.299C155.273 88.6027 155.132 89.7839 155.059 90.6425C155.023 91.074 155 91.4238 154.991 91.6646C154.975 91.7896 154.972 91.916 154.982 92.0416Z" fill="#263238"/>
<path d="M153.601 81.7658C153.574 81.8168 153.551 81.87 153.533 81.9248L153.356 82.3791C153.279 82.5835 153.188 82.8334 153.102 83.1332C153.015 83.433 152.902 83.7647 152.815 84.1463C152.77 84.3371 152.72 84.5369 152.67 84.7414C152.62 84.9458 152.588 85.1684 152.543 85.3955C152.443 85.8498 152.384 86.3314 152.316 86.8401C152.186 87.9542 152.139 89.0763 152.175 90.1973C152.219 91.3192 152.344 92.4366 152.547 93.5408C152.656 94.045 152.752 94.5266 152.879 94.9672C152.943 95.1898 152.992 95.4215 153.056 95.6078L153.242 96.1938C153.356 96.5663 153.492 96.8934 153.601 97.1841C153.71 97.4748 153.815 97.7202 153.91 97.9155L154.119 98.3698C154.141 98.4238 154.169 98.4755 154.201 98.5242C154.201 98.5242 154.201 98.4652 154.142 98.3561C154.083 98.2471 154.033 98.0836 153.951 97.9019C153.869 97.7202 153.769 97.4476 153.669 97.1614C153.569 96.8752 153.433 96.5436 153.329 96.1711L153.147 95.585C153.088 95.3852 153.038 95.1671 152.979 94.9445C152.856 94.4902 152.765 94.0359 152.661 93.5226C152.466 92.4249 152.343 91.3156 152.293 90.2018C152.261 89.0871 152.305 87.9716 152.425 86.8629C152.493 86.3541 152.547 85.868 152.638 85.4228C152.684 85.1957 152.715 84.9685 152.761 84.7732C152.806 84.5778 152.856 84.3643 152.897 84.1781C152.979 83.7965 153.083 83.4603 153.165 83.1605C153.247 82.8606 153.329 82.6108 153.397 82.4018L153.551 81.9248C153.574 81.874 153.591 81.8207 153.601 81.7658Z" fill="#263238"/>
<path d="M144.779 78.4314C144.779 78.4314 144.779 78.4314 144.779 78.4905V78.654C144.806 78.7994 144.838 79.0129 144.897 79.2855C145.011 79.8306 145.201 80.612 145.497 81.5569C145.792 82.5018 146.192 83.6193 146.669 84.8459C147.146 86.0724 147.695 87.408 148.218 88.8299C148.74 90.2518 149.158 91.6328 149.544 92.8912C149.93 94.1495 150.285 95.2761 150.635 96.2119C150.898 96.9488 151.201 97.6707 151.543 98.3743C151.661 98.6242 151.77 98.8286 151.843 98.9422L151.925 99.0875C151.933 99.1039 151.944 99.1191 151.957 99.133C151.951 99.1141 151.943 99.0958 151.934 99.0784L151.866 98.9285C151.802 98.7968 151.702 98.606 151.589 98.3561C151.248 97.647 150.945 96.9207 150.68 96.1801C150.339 95.2443 149.989 94.1177 149.612 92.8594C149.235 91.601 148.827 90.2109 148.295 88.7708C147.764 87.3308 147.214 86.0134 146.737 84.7913C146.26 83.5693 145.828 82.4609 145.538 81.516C145.247 80.5711 145.033 79.7897 144.902 79.2446C144.838 78.9766 144.797 78.7631 144.765 78.6222L144.724 78.4587L144.779 78.4314Z" fill="#263238"/>
<path d="M162.946 75.6376C163.027 75.5607 163.132 75.5129 163.244 75.5017C163.355 75.4904 163.467 75.5163 163.563 75.5754C163.658 75.6344 163.731 75.7233 163.771 75.8282C163.81 75.9331 163.814 76.0482 163.782 76.1555C163.576 76.8054 163.329 77.4413 163.041 78.0589C162.228 79.7806 159.861 85.9543 158.734 89.3478C157.608 92.7413 156.054 99.0648 156.054 99.0648L153.674 98.6787C153.674 98.6787 155.85 88.2848 157.976 84.537C159.684 81.5251 161.392 77.1867 162.946 75.6376Z" fill="#455A64"/>
<path d="M158.085 91.4692C158.033 91.5582 157.992 91.6527 157.962 91.7509C157.894 91.9371 157.799 92.2052 157.69 92.5504C157.472 93.2273 157.204 94.1767 156.931 95.2307C156.658 96.2846 156.436 97.2386 156.281 97.9336C156.209 98.2653 156.15 98.5378 156.104 98.7604C156.076 98.8597 156.059 98.9618 156.054 99.0648C156.097 98.9703 156.129 98.8713 156.15 98.7695C156.209 98.556 156.281 98.2789 156.368 97.9564L157.054 95.2625C157.322 94.2085 157.576 93.2591 157.776 92.5777C157.867 92.2551 157.949 91.9826 158.008 91.7691C158.045 91.6725 158.071 91.5719 158.085 91.4692Z" fill="#263238"/>
<path d="M154.859 98.874V98.8104L154.887 98.6242C154.909 98.4561 154.932 98.2153 154.982 97.9019C155.068 97.275 155.227 96.3755 155.482 95.2807C155.785 93.9944 156.157 92.7251 156.595 91.4783C157.081 90.0701 157.694 88.5482 158.389 86.9719C159.788 83.8237 161.183 81.0344 162.101 78.9675C162.555 77.9408 162.927 77.1004 163.164 76.5144C163.282 76.2191 163.368 75.9919 163.432 75.8375C163.459 75.7648 163.477 75.7057 163.495 75.6603C163.513 75.6149 163.518 75.5967 163.495 75.5967L163.468 75.6558C163.445 75.7012 163.423 75.7557 163.391 75.8284C163.318 75.9874 163.223 76.21 163.1 76.4916C162.85 77.0731 162.478 77.909 162.005 78.9311C161.065 80.9845 159.657 83.7692 158.253 86.9219C157.558 88.4983 156.949 90.0246 156.468 91.442C156.032 92.6921 155.667 93.9662 155.377 95.2579C155.182 96.1295 155.03 97.0105 154.923 97.8973C154.882 98.2062 154.869 98.4561 154.85 98.6196V98.8059C154.853 98.8513 154.856 98.874 154.859 98.874Z" fill="#263238"/>
<path d="M153.674 98.6787C153.712 98.5479 153.739 98.4142 153.756 98.2789C153.801 98.0018 153.865 97.6338 153.942 97.1886C154.105 96.2801 154.355 94.9945 154.714 93.6135C155.073 92.2325 155.473 91.0014 155.782 90.1201C155.932 89.693 156.059 89.3432 156.154 89.0752C156.205 88.95 156.246 88.8209 156.277 88.6891C156.212 88.8074 156.156 88.9304 156.109 89.057C156.004 89.2978 155.859 89.6476 155.695 90.0882C155.268 91.2332 154.9 92.3992 154.591 93.5817C154.233 94.9445 153.996 96.2437 153.851 97.1705C153.783 97.6248 153.733 98.0109 153.706 98.2744C153.685 98.4081 153.674 98.5433 153.674 98.6787Z" fill="#263238"/>
<path d="M148.795 109.65H158.076V98.338H148.795V109.65Z" fill="#26C5D8"/>
<g opacity="0.3">
<path opacity="0.3" d="M148.795 109.65H158.076V98.338H148.795V109.65Z" fill="black"/>
</g>
<path d="M151.752 109.65H159.988V98.338H151.752V109.65Z" fill="#26C5D8"/>
<path d="M74.6633 5.17972L57.4307 10.6959L61.1492 22.3127L78.3818 16.7965L74.6633 5.17972Z" fill="#26C5D8"/>
<path d="M74.7659 5.29306C74.7345 5.366 74.6965 5.43594 74.6524 5.50203C74.5661 5.6474 74.4525 5.8382 74.3071 6.07442L73.0124 8.1732L68.6741 15.0737L68.6377 15.1282H68.5741L68.4242 15.0692L60.7014 12.1073L58.371 11.1987L57.7395 10.9443C57.664 10.9176 57.591 10.8841 57.5215 10.8444C57.5992 10.8597 57.6753 10.8826 57.7486 10.9125L58.3937 11.1396L60.7423 12.0073L68.4651 14.9283L68.6195 14.9829L68.5196 15.0192L72.9034 8.14139C73.4622 7.27826 73.9164 6.57413 74.2435 6.07442L74.6115 5.51566C74.6561 5.43692 74.7078 5.36241 74.7659 5.29306Z" fill="#263238"/>
<path d="M61.2371 22.4278C61.1962 22.4278 61.9821 20.4017 62.9906 17.9441C63.9991 15.4864 64.8577 13.5058 64.8986 13.5239C64.9395 13.5421 64.1581 15.55 63.1451 18.0077C62.1321 20.4653 61.2916 22.446 61.2371 22.4278Z" fill="#263238"/>
<path d="M70.5953 11.5432C70.6225 11.5069 72.4124 12.6789 74.5839 14.1599C76.7553 15.6408 78.5088 16.8856 78.4816 16.8856C78.4543 16.8856 76.6645 15.7544 74.493 14.2735C72.3215 12.7925 70.568 11.5841 70.5953 11.5432Z" fill="#263238"/>
<path d="M150.803 30.3641L137.978 24.9445C137.559 24.7608 137.229 24.4197 137.059 23.9948C136.889 23.5699 136.893 23.0952 137.07 22.6731L144.593 4.91986C144.775 4.49996 145.116 4.16907 145.542 3.99899C145.967 3.8289 146.442 3.83332 146.864 4.0113L155 7.45474L158.544 16.613L153.092 29.4828C152.903 29.9015 152.557 30.2289 152.128 30.3939C151.7 30.5589 151.223 30.5482 150.803 30.3641Z" fill="#26C5D8"/>
<path d="M154.996 7.40933L152.879 12.4064C152.795 12.6023 152.751 12.8128 152.749 13.0259C152.746 13.2389 152.786 13.4503 152.866 13.6479C152.946 13.8454 153.064 14.0253 153.214 14.1771C153.363 14.3289 153.541 14.4497 153.737 14.5324L158.539 16.5676L154.996 7.40933Z" fill="#26C5D8"/>
<g opacity="0.2">
<path opacity="0.2" d="M152.756 12.8743C152.602 13.2543 152.581 13.6752 152.697 14.0686C152.812 14.462 153.057 14.8048 153.392 15.0412C153.437 15.0786 153.484 15.1135 153.533 15.1457C154.114 15.5228 157.93 18.0077 157.971 17.9123L158.539 16.5495L153.737 14.5143C153.737 14.5143 152.547 13.9828 152.756 12.8743Z" fill="black"/>
</g>
<g opacity="0.3">
<path opacity="0.3" d="M154.996 7.40933L152.879 12.4064C152.795 12.6023 152.751 12.8128 152.749 13.0259C152.746 13.2389 152.786 13.4503 152.866 13.6479C152.946 13.8454 153.064 14.0253 153.214 14.1771C153.363 14.3289 153.541 14.4497 153.737 14.5324L158.539 16.5676L154.996 7.40933Z" fill="white"/>
</g>
<path d="M151.888 11.7704C150.854 11.4696 149.846 11.0883 148.872 10.6302C147.865 10.2502 146.889 9.7946 145.951 9.26736C146.987 9.56535 147.997 9.94668 148.972 10.4076C149.978 10.7847 150.953 11.2404 151.888 11.7704Z" fill="#FAFAFA"/>
<path d="M154.523 16.1951C154.496 16.2587 152.288 15.3865 149.59 14.2417C146.891 13.0969 144.729 12.1247 144.756 12.0566C144.783 11.9884 146.991 12.8697 149.69 14.01C152.388 15.1502 154.55 16.1315 154.523 16.1951Z" fill="#FAFAFA"/>
<path d="M154.405 18.9299C154.378 18.9935 151.97 18.0213 149.031 16.7902C146.092 15.5591 143.73 14.4961 143.757 14.4189C143.784 14.3416 146.187 15.3274 149.131 16.5585C152.075 17.7896 154.432 18.8617 154.405 18.9299Z" fill="#FAFAFA"/>
<path d="M153.456 21.1558C153.428 21.2194 151.025 20.2473 148.086 19.0162C145.147 17.7851 142.785 16.7084 142.807 16.6448C142.83 16.5812 145.242 17.5534 148.181 18.7845C151.121 20.0156 153.487 21.0877 153.456 21.1558Z" fill="#FAFAFA"/>
<path d="M152.52 23.3773C152.492 23.4454 150.085 22.4687 147.146 21.2422C144.206 20.0156 141.844 18.9344 141.871 18.8708C141.899 18.8072 144.302 19.7794 147.245 21.0105C150.189 22.2416 152.547 23.3137 152.52 23.3773Z" fill="#FAFAFA"/>
<path d="M151.575 25.6032C151.548 25.6714 149.14 24.6947 146.201 23.4681C143.262 22.2415 140.899 21.1604 140.927 21.0968C140.954 21.0332 143.362 22.0053 146.301 23.2319C149.24 24.4584 151.602 25.5396 151.575 25.6032Z" fill="#FAFAFA"/>
<path d="M107.673 34.1301C117.044 34.1301 124.641 26.5335 124.641 17.1627C124.641 7.79189 117.044 0.195343 107.673 0.195343C98.3024 0.195343 90.7058 7.79189 90.7058 17.1627C90.7058 26.5335 98.3024 34.1301 107.673 34.1301Z" fill="white"/>
<path d="M124.641 17.1627C124.641 17.1627 124.641 17.0718 124.613 16.8901C124.586 16.7084 124.582 16.4359 124.559 16.0815C124.559 15.9043 124.536 15.709 124.523 15.4909C124.509 15.2729 124.454 15.0367 124.418 14.7823C124.342 14.1915 124.224 13.607 124.064 13.0333C123.668 11.4464 123.033 9.92859 122.183 8.53138C120.951 6.47883 119.299 4.71042 117.334 3.34253C115.37 1.97465 113.138 1.0383 110.785 0.59511C110.082 0.46429 109.37 0.382323 108.655 0.349799C108.291 0.349799 107.923 0.299827 107.555 0.30437L106.438 0.363427C106.251 0.363427 106.061 0.363427 105.874 0.39977L105.311 0.486082C104.939 0.549682 104.557 0.595109 104.18 0.672337C102.633 1.01972 101.138 1.5664 99.7326 2.29866C99.3782 2.48946 99.0375 2.7166 98.6832 2.92557C98.5106 3.03459 98.3289 3.12999 98.1608 3.25265L97.6656 3.62516C96.2902 4.62403 95.0872 5.84086 94.1041 7.2276L93.7179 7.74548L93.3772 8.2997L93.0365 8.83575C92.9164 9.01835 92.8101 9.20968 92.7185 9.40814C92.5322 9.80336 92.3414 10.1986 92.1461 10.5984L91.6918 11.8431C91.1374 13.5629 90.8434 15.3559 90.8196 17.1627C90.8435 18.968 91.1375 20.7595 91.6918 22.4778C91.8417 22.8957 91.9962 23.3136 92.1461 23.727C92.296 24.1404 92.5277 24.522 92.7185 24.9127C92.809 25.1132 92.9153 25.3061 93.0365 25.4896L93.3772 26.0484L93.7134 26.6026L94.1041 27.1205C94.6079 27.809 95.1589 28.4617 95.7531 29.0739C96.354 29.6577 96.9929 30.201 97.6656 30.7002L98.1608 31.0727C98.3289 31.1954 98.5106 31.2908 98.6832 31.3998C99.0375 31.6088 99.3782 31.8541 99.7326 32.0267C101.138 32.759 102.633 33.3057 104.18 33.6531C104.557 33.7348 104.939 33.7757 105.316 33.8393L105.874 33.9256C106.065 33.9256 106.251 33.9256 106.438 33.962L107.573 34.0301C107.941 34.0301 108.309 33.9983 108.673 33.9892C109.388 33.9552 110.1 33.8717 110.803 33.7394C113.156 33.2978 115.389 32.3622 117.354 30.9941C119.319 29.6261 120.971 27.8568 122.201 25.8031C123.044 24.4076 123.672 22.893 124.064 21.3103C124.224 20.7365 124.342 20.152 124.418 19.5613C124.454 19.3069 124.5 19.0707 124.523 18.8526C124.545 18.6346 124.55 18.4392 124.559 18.2621C124.583 17.9107 124.601 17.6427 124.613 17.458C124.613 17.2763 124.641 17.1809 124.641 17.1809C124.641 17.1809 124.641 17.2763 124.641 17.458C124.641 17.6397 124.641 17.9123 124.613 18.2621C124.613 18.4438 124.614 18.6391 124.586 18.8617C124.559 19.0843 124.527 19.316 124.491 19.5704C124.421 20.1577 124.309 20.7392 124.155 21.3103C123.77 22.9101 123.143 24.442 122.297 25.8531C121.066 27.935 119.406 29.7312 117.428 31.1223C115.449 32.5133 113.197 33.4674 110.822 33.9211C110.11 34.0547 109.391 34.1397 108.668 34.1755C108.3 34.1755 107.928 34.2255 107.555 34.2209L106.424 34.1664C106.233 34.1664 106.043 34.1664 105.852 34.1301L105.302 34.0301C104.92 33.9665 104.534 33.9256 104.153 33.8439C103.381 33.6749 102.622 33.4533 101.881 33.1806C101.117 32.9077 100.371 32.5829 99.6508 32.2084C99.2919 32.0131 98.9421 31.786 98.5878 31.5725C98.4106 31.4589 98.2244 31.3635 98.0563 31.2408L97.5566 30.8638C96.8748 30.3585 96.2268 29.8092 95.6168 29.2193C95.0136 28.598 94.4535 27.9363 93.9405 27.2386L93.5453 26.7162L93.2 26.1529L92.8593 25.5851C92.736 25.4004 92.6281 25.2059 92.5368 25.0036C92.346 24.6038 92.1506 24.204 91.9599 23.7997L91.5056 22.5323C90.9456 20.7902 90.6485 18.9743 90.6243 17.1445C90.6382 15.3208 90.9246 13.5095 91.4738 11.7704L91.928 10.5075L92.5095 9.29911C92.6003 9.09732 92.7066 8.9029 92.8275 8.71763L93.1728 8.15433L93.5135 7.59102L93.9087 7.06406C94.4229 6.36881 94.9829 5.70863 95.585 5.08794C96.195 4.49804 96.843 3.9487 97.5248 3.44344L98.0245 3.06639C98.1926 2.94374 98.3788 2.84834 98.556 2.73477C98.9103 2.5258 99.2601 2.28049 99.619 2.10332C101.044 1.36476 102.559 0.813544 104.125 0.463369C104.507 0.386141 104.893 0.340713 105.275 0.277114L105.843 0.1908C106.033 0.1908 106.224 0.190801 106.415 0.154458L107.546 0.0999451C107.919 0.0999451 108.287 0.131744 108.655 0.145372C109.379 0.183162 110.099 0.268142 110.812 0.39977C113.188 0.853455 115.44 1.80752 117.418 3.19858C119.397 4.58963 121.057 6.38582 122.288 8.46778C123.134 9.87886 123.761 11.4107 124.146 13.0106C124.299 13.5892 124.41 14.1783 124.477 14.7732C124.514 15.0321 124.554 15.2684 124.573 15.4864L124.6 16.0815C124.6 16.4313 124.623 16.6993 124.627 16.8901C124.632 17.0809 124.641 17.1627 124.641 17.1627Z" fill="#263238"/>
<path d="M115.719 16.6857C115.497 16.7674 115.269 16.8327 115.037 16.881L113.143 17.3353C111.539 17.7078 109.313 18.2121 106.824 18.7572L106.683 18.789V18.1303C106.683 15.4728 106.683 13.0651 106.715 11.3161C106.715 10.4802 106.747 9.78518 106.756 9.25368C106.749 9.00147 106.764 8.74914 106.801 8.49957C106.835 8.74943 106.851 9.00152 106.847 9.25368C106.847 9.78518 106.869 10.4802 106.883 11.3161C106.883 13.0605 106.919 15.4682 106.919 18.1303V18.6255L106.774 18.5074C109.263 17.9668 111.494 17.4898 113.107 17.1445L115.015 16.7675C115.246 16.7185 115.482 16.6911 115.719 16.6857Z" fill="#263238"/>
<path d="M125.853 24.1586C125.87 24.0639 125.896 23.971 125.931 23.8815C125.981 23.7043 126.085 23.4272 126.176 23.1092C126.468 22.1562 126.69 21.1829 126.839 20.1973C127.358 16.9406 127.048 13.6056 125.936 10.5009C124.824 7.39608 122.948 4.62188 120.479 2.43494C119.74 1.77344 118.953 1.16615 118.126 0.617821C117.835 0.413395 117.595 0.277111 117.445 0.163541C117.362 0.115581 117.283 0.0608835 117.208 0C117.301 0.0274851 117.388 0.0688459 117.467 0.122656C117.626 0.213512 117.876 0.336166 118.176 0.531507C119.03 1.05678 119.838 1.65245 120.593 2.31228C123.114 4.49344 125.028 7.28961 126.148 10.4291C127.269 13.5686 127.559 16.9446 126.989 20.2291C126.828 21.2133 126.586 22.1827 126.267 23.1274C126.158 23.4636 126.04 23.718 125.976 23.8906C125.946 23.9843 125.904 24.0742 125.853 24.1586Z" fill="#263238"/>
<path d="M129.106 15.809C129.07 15.809 129.047 15.1321 128.911 14.0509C128.729 12.645 128.409 11.2604 127.957 9.91696C127.5 8.57915 126.911 7.2902 126.199 6.06921C125.644 5.12885 125.245 4.58372 125.29 4.561C125.412 4.66334 125.52 4.78266 125.608 4.91534C125.794 5.16065 126.062 5.51953 126.353 5.97836C127.126 7.18641 127.751 8.48279 128.216 9.83974C128.683 11.1965 128.988 12.604 129.124 14.0327C129.174 14.5779 129.188 15.0231 129.188 15.332C129.186 15.4943 129.158 15.6552 129.106 15.809Z" fill="#263238"/>
<path d="M90.7333 7.33661C90.7062 7.42725 90.6681 7.51422 90.6198 7.59555C90.538 7.76363 90.3972 7.99986 90.2518 8.3224C88.5411 11.721 87.8508 15.5422 88.2644 19.3245C88.6779 23.1068 90.1776 26.6886 92.5822 29.6372C93.2082 30.4113 93.8883 31.14 94.6174 31.8178C94.8718 32.0631 95.0717 32.2357 95.2216 32.3629C95.2946 32.4244 95.3629 32.4912 95.426 32.5628C95.3408 32.5183 95.2614 32.4634 95.1898 32.3992C95.0444 32.2857 94.8218 32.1221 94.5584 31.8859C93.7996 31.2301 93.0961 30.5129 92.455 29.7417C90.3112 27.1882 88.8651 24.123 88.2577 20.8447C87.6503 17.5663 87.9022 14.1865 88.9889 11.0344C89.3093 10.085 89.709 9.16406 90.1836 8.28151C90.3426 7.96351 90.4971 7.73183 90.588 7.57283C90.6298 7.4902 90.6784 7.41119 90.7333 7.33661Z" fill="#263238"/>
<path d="M86.195 15.0639C86.2359 15.0639 86.1496 15.7408 86.1132 16.8311C86.065 18.2469 86.1609 19.664 86.3994 21.0604C86.6427 22.4582 87.0263 23.828 87.5442 25.1489C87.9394 26.162 88.2483 26.7662 88.212 26.7843C88.1098 26.6613 88.0242 26.5254 87.9576 26.38C87.8077 26.112 87.6078 25.7168 87.3898 25.2125C86.8194 23.9034 86.4076 22.5309 86.1632 21.124C85.922 19.7111 85.8488 18.2747 85.9451 16.8447C85.986 16.295 86.0405 15.8544 86.0905 15.55C86.1033 15.384 86.1384 15.2205 86.195 15.0639Z" fill="#263238"/>
<path d="M121.72 19.9474C121.079 19.8157 120.561 19.7021 120.561 19.6976C120.561 19.693 121.084 19.793 121.724 19.9247C122.365 20.0564 122.883 20.1655 122.878 20.17C122.874 20.1746 122.356 20.0973 121.72 19.9474Z" fill="#263238"/>
<path d="M120.075 24.2404C119.512 23.9088 119.058 23.6362 119.058 23.6316C119.058 23.6271 119.512 23.8906 120.084 24.2222C120.657 24.5538 121.102 24.8264 121.097 24.8309C121.093 24.8355 120.634 24.572 120.075 24.2404Z" fill="#263238"/>
<path d="M117.113 27.7474C116.686 27.2477 116.345 26.8389 116.35 26.8389C116.354 26.8389 116.704 27.2341 117.127 27.7474C117.549 28.2608 117.894 28.656 117.885 28.656C117.876 28.656 117.567 28.2426 117.113 27.7474Z" fill="#263238"/>
<path d="M113.202 30.1097C112.961 29.5009 112.77 29.0058 112.775 29.0058C112.78 29.0058 112.979 29.4918 113.229 30.1006C113.479 30.7093 113.661 31.1999 113.652 31.2045C113.643 31.209 113.443 30.7139 113.202 30.1097Z" fill="#263238"/>
<path d="M108.722 31.0682C108.695 30.414 108.677 29.8871 108.682 29.8871C108.686 29.8871 108.718 30.414 108.745 31.0682C108.772 31.7223 108.795 32.2493 108.791 32.2493C108.786 32.2493 108.754 31.7223 108.722 31.0682Z" fill="#263238"/>
<path d="M104.175 30.5185C104.357 29.8916 104.507 29.3874 104.516 29.3874C104.525 29.3874 104.38 29.9007 104.198 30.5276C104.016 31.1545 103.862 31.6588 103.853 31.6588C103.844 31.6588 103.989 31.1454 104.175 30.5185Z" fill="#263238"/>
<path d="M100.046 28.5288C100.423 27.9927 100.732 27.5657 100.741 27.5702C100.75 27.5748 100.441 28.0245 100.064 28.5424C99.687 29.0603 99.3962 29.4873 99.3962 29.4873C99.3962 29.4873 99.6688 29.0603 100.046 28.5288Z" fill="#263238"/>
<path d="M96.7978 25.3034C97.3247 24.9173 97.7563 24.6129 97.7608 24.6175C97.7654 24.622 97.3384 24.9354 96.8069 25.3216C96.2754 25.7077 95.8483 26.0075 95.8438 26.003C95.8392 25.9985 96.2663 25.685 96.7978 25.3034Z" fill="#263238"/>
<path d="M94.7626 21.1967C95.3895 21.0059 95.8983 20.856 95.8983 20.8605C95.8983 20.8651 95.394 21.0286 94.7671 21.2194C94.1402 21.4102 93.636 21.5556 93.636 21.551C93.636 21.5465 94.1402 21.3875 94.7626 21.1967Z" fill="#263238"/>
<path d="M94.1768 16.6539C94.8309 16.6539 95.3579 16.6993 95.3579 16.7084C95.3579 16.7175 94.8264 16.7084 94.1768 16.6766C93.5271 16.6448 92.9911 16.6266 92.9956 16.6221C93.0002 16.6175 93.5226 16.6266 94.1768 16.6539Z" fill="#263238"/>
<path d="M95.0943 12.1611C95.7076 12.3973 96.1982 12.5881 96.1982 12.6153C96.1982 12.6426 95.6985 12.4336 95.0852 12.202C94.4719 11.9703 93.9858 11.7749 93.9858 11.7704C93.9858 11.7658 94.4855 11.9294 95.0943 12.1611Z" fill="#263238"/>
<path d="M97.4247 8.21335C97.9244 8.63583 98.3332 8.98108 98.3332 8.98563C98.3332 8.99017 97.9198 8.654 97.4247 8.23152C96.9295 7.80904 96.5161 7.46833 96.5161 7.46379C96.5161 7.45925 96.9204 7.79541 97.4247 8.21335Z" fill="#263238"/>
<path d="M100.904 5.24239C101.241 5.80116 101.513 6.25544 101.509 6.25998C101.504 6.26452 101.222 5.8057 100.886 5.25148C100.55 4.69726 100.277 4.23843 100.282 4.23389C100.287 4.22935 100.568 4.68363 100.904 5.24239Z" fill="#263238"/>
<path d="M105.161 3.55246C105.297 4.193 105.406 4.71087 105.402 4.71087C105.397 4.71087 105.279 4.19754 105.138 3.557C104.998 2.91647 104.893 2.40313 104.902 2.39859C104.911 2.39405 105.025 2.91647 105.161 3.55246Z" fill="#263238"/>
<path d="M109.736 3.34346C109.658 3.99308 109.59 4.5155 109.586 4.5155C109.581 4.5155 109.636 3.98853 109.717 3.33891C109.799 2.68929 109.863 2.16687 109.867 2.16687C109.872 2.16687 109.817 2.68475 109.736 3.34346Z" fill="#263238"/>
<path d="M114.138 4.62914C113.856 5.21516 113.62 5.69216 113.615 5.68761C113.611 5.68307 113.833 5.20608 114.115 4.61551C114.397 4.02495 114.633 3.5525 114.642 3.55704C114.651 3.56158 114.419 4.04766 114.138 4.62914Z" fill="#263238"/>
<path d="M117.877 7.27301C117.422 7.72729 117.041 8.10888 117.036 8.10434C117.032 8.0998 117.404 7.7182 117.863 7.25484C118.322 6.79147 118.699 6.41896 118.703 6.4235C118.708 6.42805 118.34 6.80964 117.877 7.27301Z" fill="#263238"/>
<path d="M120.557 10.9845C119.971 11.2752 119.494 11.5069 119.494 11.5024C119.494 11.4978 119.948 11.257 120.548 10.9663C121.147 10.6756 121.611 10.4439 121.611 10.4484C121.611 10.453 121.143 10.6937 120.557 10.9845Z" fill="#263238"/>
<path d="M121.892 15.3683L120.716 15.5091C120.716 15.5091 121.238 15.4273 121.888 15.3456C122.537 15.2638 123.06 15.1957 123.06 15.2002C123.06 15.2047 122.537 15.282 121.892 15.3683Z" fill="#263238"/>
<path d="M130.288 13.801C130.036 14.5681 129.71 15.309 129.315 16.0134L129.288 16.0633L129.197 16.2496L129.084 16.077C128.627 15.439 128.234 14.7573 127.912 14.0418C128.436 14.6281 128.901 15.264 129.302 15.9407H129.097L129.125 15.8862C129.444 15.1551 129.833 14.4568 130.288 13.801Z" fill="#263238"/>
<path d="M138.01 52.1649H84.6189C83.3647 52.1649 82.1619 52.6632 81.275 53.55C80.3881 54.4369 79.8899 55.6398 79.8899 56.894C79.8899 58.1482 80.3881 59.3511 81.275 60.2379C82.1619 61.1248 83.3647 61.623 84.6189 61.623H109.604L115.197 66.9517V61.623H138.01C138.632 61.623 139.246 61.5007 139.82 61.2631C140.394 61.0254 140.915 60.6771 141.354 60.2379C141.794 59.7988 142.142 59.2775 142.38 58.7037C142.617 58.13 142.74 57.515 142.74 56.894C142.74 56.273 142.617 55.658 142.38 55.0843C142.142 54.5105 141.794 53.9892 141.354 53.55C140.915 53.1109 140.394 52.7626 139.82 52.5249C139.246 52.2873 138.632 52.1649 138.01 52.1649Z" fill="#FAFAFA"/>
<path d="M138.01 52.165H138.183C138.356 52.1667 138.529 52.1804 138.701 52.2058C139.375 52.2963 140.022 52.5335 140.595 52.9009C141.143 53.2499 141.614 53.7074 141.979 54.2452C142.343 54.783 142.594 55.3898 142.715 56.0281C142.837 56.6665 142.826 57.3229 142.684 57.957C142.542 58.5911 142.272 59.1894 141.89 59.7151C141.373 60.4337 140.669 60.9964 139.855 61.3414C139.418 61.5181 138.96 61.6358 138.492 61.6912C138.006 61.7276 137.524 61.7139 137.024 61.7185H130.592H115.187L115.292 61.614C115.292 63.2857 115.292 65.0938 115.292 66.9427V67.1925L115.11 67.0199L109.513 61.6912L109.59 61.723H88.3574H84.6505C83.413 61.7359 82.2175 61.2746 81.3095 60.4337C80.4015 59.5928 79.8499 58.4362 79.768 57.2014C79.686 55.9666 80.0799 54.7472 80.8687 53.7937C81.6576 52.8402 82.7816 52.2249 84.0099 52.0741C84.6005 52.0105 85.1683 52.0423 85.7407 52.0332H94.0541L116.932 52.0605L132.377 52.0968L136.57 52.1195H137.66C137.906 52.1195 138.033 52.1195 138.033 52.1195H137.66H136.57L132.377 52.1422L116.932 52.1831H94.0541H85.7407C85.1729 52.1831 84.5914 52.1831 84.0417 52.224C82.9038 52.3654 81.8601 52.9278 81.1162 53.8004C80.5432 54.4727 80.1751 55.2954 80.0558 56.1707C79.9365 57.046 80.0709 57.9372 80.443 58.7384C80.8152 59.5396 81.4094 60.2172 82.1552 60.6907C82.901 61.1642 83.7671 61.4137 84.6505 61.4096H88.3574H109.59H109.636L109.668 61.4368L115.26 66.7701L115.078 66.8473C115.078 64.9984 115.078 63.1903 115.078 61.5186V61.4186H115.178H130.583H137.015C137.51 61.4186 138.001 61.4186 138.469 61.4186C138.925 61.3679 139.373 61.2564 139.8 61.087C140.742 60.6907 141.528 59.9978 142.041 59.1136C142.553 58.2294 142.762 57.2022 142.637 56.1881C142.512 55.174 142.06 54.2284 141.349 53.4949C140.637 52.7614 139.706 52.2801 138.696 52.1241C138.246 52.1695 138.01 52.2013 138.01 52.165Z" fill="#263238"/>
<path d="M107.969 60.2375H84.5869C84.1477 60.2381 83.7126 60.152 83.3067 59.9842C82.9008 59.8164 82.532 59.5702 82.2214 59.2596C81.9108 58.949 81.6645 58.5802 81.4967 58.1742C81.3289 57.7683 81.2428 57.3333 81.2434 56.894C81.2458 56.0093 81.5993 55.1616 82.2262 54.5373C82.8531 53.9129 83.7022 53.5629 84.5869 53.5642H107.969C108.408 53.5636 108.842 53.6495 109.248 53.817C109.653 53.9845 110.022 54.2304 110.333 54.5405C110.643 54.8506 110.89 55.2189 111.058 55.6243C111.226 56.0297 111.312 56.4643 111.312 56.9031C111.312 57.3416 111.225 57.7757 111.056 58.1805C110.888 58.5854 110.642 58.9532 110.331 59.2628C110.021 59.5724 109.652 59.8179 109.247 59.9851C108.841 60.1523 108.407 60.2381 107.969 60.2375Z" fill="#26C5D8"/>
<path d="M109.927 47.2905L109.136 49.7073H108.536L108.005 48.0719L107.455 49.7073H106.86L106.065 47.2905H106.665L107.21 48.9895L107.778 47.2905H108.296L108.85 49.0032L109.409 47.2905H109.927Z" fill="#263238"/>
<path d="M110.058 48.4989C110.044 48.2348 110.109 47.9725 110.245 47.7457C110.381 47.519 110.582 47.3383 110.822 47.227C111.062 47.1157 111.33 47.079 111.591 47.1215C111.852 47.164 112.094 47.2838 112.286 47.4654C112.479 47.6471 112.612 47.8822 112.669 48.1404C112.726 48.3986 112.705 48.6681 112.607 48.9139C112.51 49.1597 112.34 49.3706 112.122 49.5193C111.903 49.6681 111.645 49.7478 111.38 49.7482C111.21 49.7581 111.04 49.7331 110.88 49.6748C110.72 49.6165 110.573 49.526 110.45 49.409C110.326 49.292 110.227 49.1509 110.16 48.9944C110.093 48.8379 110.058 48.6693 110.058 48.4989ZM112.134 48.4989C112.131 48.3506 112.084 48.2066 111.999 48.085C111.914 47.9634 111.795 47.8696 111.657 47.8153C111.518 47.761 111.367 47.7486 111.222 47.7798C111.077 47.8109 110.945 47.8841 110.841 47.9902C110.737 48.0964 110.667 48.2308 110.64 48.3765C110.612 48.5223 110.628 48.673 110.686 48.8097C110.743 48.9465 110.84 49.0632 110.963 49.1453C111.087 49.2273 111.232 49.2712 111.38 49.2712C111.48 49.2713 111.579 49.2511 111.671 49.2119C111.762 49.1727 111.845 49.1152 111.914 49.043C111.983 48.9707 112.036 48.8852 112.071 48.7917C112.106 48.6982 112.121 48.5986 112.116 48.4989H112.134Z" fill="#263238"/>
<path d="M114.665 49.7073L114.211 49.035H113.697V49.7073H113.138V47.2905H114.183C114.828 47.2905 115.233 47.6267 115.233 48.1673C115.24 48.3308 115.195 48.4924 115.106 48.6294C115.016 48.7663 114.886 48.8716 114.733 48.9305L115.278 49.7073H114.665ZM114.138 47.7448H113.684V48.5898H114.138C114.479 48.5898 114.651 48.4308 114.651 48.1673C114.651 47.9038 114.479 47.7448 114.138 47.7448Z" fill="#263238"/>
<path d="M116.541 48.7578L116.214 49.094V49.7073H115.66V47.2905H116.205V48.4171L117.277 47.2905H117.9L116.896 48.3672L117.959 49.7073H117.304L116.541 48.7578Z" fill="#263238"/>
<path d="M131.886 57.7798H131.196L131.028 58.6521H130.537L130.714 57.7798H128.752L128.816 57.4301L131.06 55.1178H131.65L129.502 57.3483H130.833L130.987 56.5805H131.441L131.287 57.3483H131.959L131.886 57.7798Z" fill="#263238"/>
<path d="M133.34 55.5584L133.049 56.526H133.39C134.299 56.526 134.703 56.8986 134.703 57.4709C134.703 58.2023 134.103 58.6884 133.199 58.6884C132.973 58.7016 132.747 58.6681 132.534 58.5899C132.322 58.5118 132.127 58.3907 131.964 58.2341L132.232 57.8434C132.363 57.9746 132.52 58.0767 132.693 58.1432C132.866 58.2098 133.051 58.2392 133.236 58.2296C133.844 58.2296 134.199 57.9616 134.199 57.5118C134.199 57.162 133.949 56.9531 133.29 56.9531H132.436L132.986 55.1041H134.976L134.894 55.5584H133.34Z" fill="#263238"/>
<path d="M135.285 56.2444C135.27 56.1046 135.283 55.9632 135.324 55.8287C135.365 55.6942 135.433 55.5693 135.523 55.4616C135.613 55.3538 135.725 55.2654 135.85 55.2017C135.975 55.1379 136.112 55.1001 136.252 55.0905C136.352 55.0865 136.451 55.1041 136.542 55.1421C136.634 55.1801 136.717 55.2376 136.784 55.3107C136.852 55.3837 136.902 55.4705 136.933 55.565C136.963 55.6596 136.973 55.7596 136.961 55.8583C136.977 55.9978 136.964 56.1391 136.924 56.2736C136.883 56.4081 136.816 56.533 136.726 56.6408C136.636 56.7487 136.525 56.8371 136.4 56.9009C136.275 56.9648 136.138 57.0026 135.998 57.0121C135.899 57.016 135.799 56.9984 135.707 56.9604C135.615 56.9224 135.533 56.865 135.465 56.7921C135.397 56.7192 135.346 56.6325 135.315 56.538C135.284 56.4434 135.274 56.3433 135.285 56.2444ZM138.419 55.1178H138.824L135.739 58.6521H135.326L138.419 55.1178ZM136.648 55.8855C136.648 55.5493 136.493 55.3767 136.239 55.3767C135.83 55.3767 135.63 55.831 135.63 56.2171C135.63 56.6033 135.784 56.7259 136.039 56.7259C136.443 56.7441 136.648 56.2898 136.648 55.8855ZM137.206 57.9116C137.191 57.7719 137.204 57.6305 137.244 57.496C137.285 57.3615 137.353 57.2366 137.443 57.1291C137.534 57.0216 137.645 56.9336 137.771 56.8706C137.897 56.8075 138.034 56.7706 138.174 56.7623C138.273 56.7582 138.372 56.7757 138.464 56.8138C138.555 56.8518 138.637 56.9094 138.704 56.9825C138.772 57.0556 138.822 57.1425 138.852 57.2371C138.882 57.3316 138.891 57.4316 138.878 57.53C138.894 57.6693 138.881 57.8104 138.841 57.9446C138.8 58.0788 138.733 58.2035 138.643 58.3109C138.553 58.4184 138.442 58.5065 138.317 58.5698C138.192 58.6331 138.055 58.6704 137.915 58.6793C137.815 58.6848 137.715 58.6683 137.623 58.6308C137.53 58.5934 137.446 58.536 137.378 58.4627C137.31 58.3895 137.259 58.3021 137.229 58.2068C137.198 58.1116 137.189 58.0108 137.202 57.9116H137.206ZM138.569 57.5527C138.569 57.2211 138.41 57.0439 138.16 57.0439C137.756 57.0439 137.547 57.4982 137.547 57.8889C137.547 58.2796 137.711 58.3977 137.956 58.3977C138.342 58.3977 138.546 57.9389 138.546 57.5527H138.569Z" fill="#263238"/>
<g opacity="0.3">
<path opacity="0.3" d="M85.4909 53.555L83.324 60.2375H85.4909L87.5261 53.555H85.4909Z" fill="white"/>
</g>
<g opacity="0.3">
<path opacity="0.3" d="M90.8425 53.555L88.6755 60.2375H90.8425L92.8776 53.555H90.8425Z" fill="white"/>
</g>
<g opacity="0.3">
<path opacity="0.3" d="M96.189 53.555L94.0266 60.2375H96.189L98.2287 53.555H96.189Z" fill="white"/>
</g>
<g opacity="0.3">
<path opacity="0.3" d="M101.541 53.555L99.3784 60.2375H101.541L103.581 53.555H101.541Z" fill="white"/>
</g>
<g opacity="0.3">
<path opacity="0.3" d="M106.892 53.555L104.725 60.2375H106.892L108.932 53.555H106.892Z" fill="white"/>
</g>
<path d="M25.803 148.136C25.803 148.136 37.3099 153.319 49.2938 153.319C60.3873 153.319 72.1304 147.736 72.1304 147.736L25.803 148.136Z" fill="#E0E0E0"/>
<path d="M50.543 148.236H45.7913V198.012H50.543V148.236Z" fill="#E0E0E0"/>
<path d="M69.2505 195.091H27.0752V198.007H69.2505V195.091Z" fill="#E0E0E0"/>
<path d="M32.2356 198.966C32.2374 199.603 32.0499 200.227 31.6969 200.758C31.3439 201.289 30.8412 201.703 30.2526 201.948C29.664 202.193 29.0158 202.258 28.3903 202.134C27.7648 202.011 27.1901 201.704 26.7389 201.254C26.2877 200.803 25.9804 200.229 25.8559 199.604C25.7314 198.978 25.7953 198.33 26.0396 197.741C26.2838 197.152 26.6973 196.649 27.2277 196.295C27.7582 195.941 28.3817 195.753 29.0193 195.754C29.8712 195.755 30.6879 196.094 31.2907 196.696C31.8934 197.297 32.2332 198.114 32.2356 198.966Z" fill="#263238"/>
<path d="M50.9793 198.966C50.9793 199.603 50.7904 200.225 50.4365 200.755C50.0826 201.285 49.5795 201.697 48.991 201.941C48.4025 202.185 47.7549 202.249 47.1301 202.124C46.5053 202 45.9314 201.693 45.481 201.243C45.0305 200.793 44.7238 200.219 44.5995 199.594C44.4752 198.969 44.539 198.322 44.7828 197.733C45.0265 197.144 45.4394 196.641 45.969 196.287C46.4987 195.934 47.1214 195.745 47.7584 195.745C48.6127 195.745 49.4319 196.084 50.0359 196.688C50.6399 197.292 50.9793 198.111 50.9793 198.966Z" fill="#263238"/>
<path d="M72.6893 198.966C72.6893 199.603 72.5004 200.225 72.1464 200.755C71.7925 201.285 71.2895 201.697 70.701 201.941C70.1124 202.185 69.4648 202.249 68.8401 202.124C68.2153 202 67.6414 201.693 67.1909 201.243C66.7405 200.793 66.4337 200.219 66.3094 199.594C66.1852 198.969 66.249 198.322 66.4927 197.733C66.7365 197.144 67.1493 196.641 67.679 196.287C68.2087 195.934 68.8314 195.745 69.4684 195.745C70.3226 195.745 71.1419 196.084 71.7459 196.688C72.3499 197.292 72.6893 198.111 72.6893 198.966Z" fill="#263238"/>
<path d="M49.2894 166.148H42.825V168.824H49.2894V166.148Z" fill="#E0E0E0"/>
<path d="M44.0014 164.277H41.6482V170.696H44.0014V164.277Z" fill="#E0E0E0"/>
<path d="M24.6764 72.3759H43.9742V141.803H19.4067V77.641C19.4091 76.2445 19.9653 74.9061 20.9531 73.919C21.941 72.932 23.2799 72.3771 24.6764 72.3759Z" fill="#455A64"/>
<path d="M24.84 140.75C24.7764 140.75 24.7219 125.686 24.7219 107.106C24.7219 88.5255 24.7764 73.457 24.84 73.457C24.9036 73.457 24.9581 88.521 24.9581 107.106C24.9581 125.69 24.8945 140.75 24.84 140.75Z" fill="#263238"/>
<path d="M19.4067 141.663H80.1939V149.213H23.0183C22.0544 149.213 21.13 148.83 20.4485 148.148C19.7669 147.467 19.384 146.542 19.384 145.579V141.645L19.4067 141.663Z" fill="#455A64"/>
<path d="M53.8139 44.9329L51.179 70.05C50.7248 74.3248 50.9474 80.6892 57.7343 81.089C63.6399 80.9936 65.7115 75.5922 66.1249 71.6082C66.3247 69.7138 66.4883 68.1375 66.5246 67.9467C66.5246 67.9467 72.9799 68.0148 74.1066 61.7321C74.6517 58.6975 75.2604 52.3558 75.7465 46.6137C75.998 43.638 75.1195 40.6767 73.286 38.3196C71.4524 35.9624 68.7984 34.3823 65.8523 33.8939L65.2436 33.7894C58.6338 33.0716 54.3363 38.2913 53.8139 44.9329Z" fill="#FFBE9D"/>
<path d="M66.5248 67.933C63.6187 67.4419 60.9147 66.1269 58.7339 64.1443C58.7339 64.1443 59.965 69.0733 66.3385 69.5548L66.5248 67.933Z" fill="#EB996E"/>
<path d="M64.6848 48.1946C64.5485 48.3081 63.8717 47.654 62.8132 47.5268C61.7547 47.3996 60.9143 47.8493 60.8144 47.7039C60.7644 47.6358 60.9188 47.4132 61.2686 47.2042C61.7618 46.9339 62.3282 46.8273 62.8859 46.8999C63.4379 46.9692 63.9535 47.2126 64.3577 47.5949C64.6712 47.8902 64.753 48.14 64.6848 48.1946Z" fill="#263238"/>
<path d="M64.5803 50.625C64.5455 50.8471 64.4253 51.0468 64.2455 51.1817C64.0656 51.3166 63.8402 51.376 63.6172 51.3473C63.5081 51.3376 63.4019 51.3063 63.3049 51.2553C63.2079 51.2042 63.1221 51.1344 63.0523 51.0498C62.9826 50.9653 62.9303 50.8677 62.8986 50.7628C62.8669 50.6579 62.8564 50.5477 62.8677 50.4387C62.9036 50.2171 63.024 50.0181 63.2036 49.8834C63.3831 49.7487 63.608 49.6888 63.8307 49.7164C63.9399 49.7261 64.0461 49.7573 64.1431 49.8084C64.24 49.8594 64.3259 49.9293 64.3956 50.0138C64.4654 50.0984 64.5176 50.1959 64.5493 50.3008C64.581 50.4058 64.5916 50.5159 64.5803 50.625Z" fill="#263238"/>
<path d="M66.6611 55.8355C67.1972 55.7617 67.7404 55.7541 68.2784 55.8128C68.5282 55.8128 68.7735 55.8128 68.8417 55.6584C68.9037 55.4052 68.8879 55.1392 68.7962 54.8952L68.3829 52.8963C67.8105 50.048 67.4425 47.7266 67.5606 47.7039C67.6787 47.6812 68.2284 49.9753 68.7962 52.8146C68.9325 53.5187 69.0597 54.1774 69.1824 54.827C69.2878 55.1511 69.2749 55.502 69.146 55.8174C69.0975 55.8973 69.0313 55.965 68.9526 56.0154C68.8738 56.0657 68.7846 56.0975 68.6918 56.1081C68.5485 56.1268 68.4034 56.1268 68.2602 56.1081C67.718 56.0831 67.181 55.9916 66.6611 55.8355Z" fill="#263238"/>
<path d="M64.6032 44.1651C64.476 44.3922 63.6446 44.1333 62.6225 44.0924C61.6004 44.0515 60.7463 44.1969 60.6464 43.9607C60.6055 43.8471 60.7827 43.6472 61.1506 43.4701C61.628 43.2504 62.1527 43.1536 62.677 43.1884C63.2019 43.216 63.712 43.372 64.1625 43.6427C64.5032 43.838 64.6577 44.0561 64.6032 44.1651Z" fill="#263238"/>
<path d="M74.4927 47.0589C74.3655 47.2406 73.5569 46.9498 72.5575 46.8272C71.5581 46.7045 70.7131 46.7545 70.6222 46.5455C70.5859 46.4456 70.7676 46.2911 71.131 46.1685C71.6203 46.0254 72.1345 45.9883 72.6392 46.0594C73.1486 46.1248 73.6389 46.295 74.0793 46.5592C74.4109 46.7727 74.5518 46.9725 74.4927 47.0589Z" fill="#263238"/>
<path d="M53.5505 49.6664C53.4505 49.5983 49.4392 47.6676 48.8623 51.9923C48.2853 56.3171 52.7464 56.0036 52.7691 55.881C52.7918 55.7583 53.5505 49.6664 53.5505 49.6664Z" fill="#FFBE9D"/>
<path d="M51.6696 54.0684C51.6696 54.0684 51.5833 54.1093 51.4515 54.1502C51.2611 54.2028 51.0577 54.1801 50.8837 54.0866C50.4294 53.8594 50.1614 53.0826 50.2477 52.3013C50.2851 51.9278 50.4063 51.5676 50.602 51.2473C50.6603 51.1175 50.7497 51.0041 50.8622 50.9169C50.9747 50.8298 51.1069 50.7716 51.2471 50.7476C51.336 50.736 51.4261 50.756 51.5017 50.8042C51.5773 50.8524 51.6335 50.9256 51.6605 51.0111C51.7059 51.1383 51.6605 51.2246 51.6878 51.2337C51.715 51.2428 51.7922 51.1746 51.7786 50.9884C51.7713 50.8787 51.7245 50.7754 51.6469 50.6977C51.5392 50.5911 51.3941 50.5308 51.2426 50.5296C51.0602 50.542 50.8841 50.6007 50.7307 50.7C50.5773 50.7994 50.4518 50.9361 50.3658 51.0974C50.1311 51.4459 49.9859 51.8469 49.9433 52.2649C49.857 53.1417 50.1932 54.0184 50.7928 54.2819C50.9044 54.3312 51.0256 54.3547 51.1475 54.3508C51.2694 54.3468 51.3888 54.3155 51.497 54.2592C51.6469 54.1729 51.6969 54.0775 51.6696 54.0684Z" fill="#EB996E"/>
<path d="M65.3571 58.7293C65.4161 58.6248 64.5893 58.275 64.0624 57.4346C63.847 57.0623 63.6806 56.6638 63.5672 56.2489C63.4718 55.9218 63.3946 55.7129 63.3446 55.722C63.2946 55.7311 63.2901 55.9491 63.3446 56.2989C63.3986 56.7672 63.5536 57.2183 63.7989 57.6209C64.0484 58.0264 64.4054 58.355 64.8301 58.5703C65.1209 58.7338 65.3253 58.7656 65.3571 58.7293Z" fill="#263238"/>
<path d="M48.4262 42.1027C49.4756 40.6535 49.8527 38.8455 50.5068 37.1828C51.161 35.5201 52.274 33.8393 54.0048 33.3941L54.0411 33.4168C55.5993 32.9625 57.4528 33.1125 58.5839 34.2709C59.0973 32.0404 61.2415 30.4367 63.4992 30.0642C65.757 29.6917 69.255 30.3595 71.2901 31.4271C72.862 32.2357 74.3157 33.7257 76.051 35.8836C76.7867 36.7907 77.4461 37.757 78.0226 38.7728L79.3854 44.8647L77.4593 47.813C77.3423 48.0192 77.2149 48.2193 77.0777 48.4126L74.9971 54.8134C75.0652 53.0235 75.7693 46.8363 75.8375 45.0418C74.5009 44.8783 73.2111 44.4463 72.0456 43.7718C70.8801 43.0973 69.8629 42.1943 69.0551 41.1169C68.1829 39.9494 67.5423 38.5275 66.2976 37.7643C64.6985 36.7785 62.6634 37.1964 60.8145 37.6507L60.8962 37.5871C59.9332 37.9298 59.0449 38.4541 58.2796 39.1317C58.3505 42.6861 57.6548 46.2142 56.2399 49.4756C56.0263 49.9662 55.4812 50.9657 54.9633 51.1156C53.9548 51.4018 53.7822 50.3842 53.2462 49.8027C52.8509 49.3757 52.2149 49.2621 51.5108 49.203C51.163 47.681 50.9052 46.1399 50.7385 44.5876C50.1371 44.7115 49.5151 44.6944 48.9214 44.5376L49.6074 43.2474C49.359 43.3972 49.082 43.4932 48.7942 43.5291C48.6441 43.5479 48.4918 43.5179 48.3601 43.4434C48.2284 43.369 48.1241 43.254 48.0628 43.1157C47.9492 42.7659 48.2082 42.407 48.4262 42.1027Z" fill="#263238"/>
<path d="M60.5192 35.1794C60.277 35.3372 60.0463 35.5117 59.8287 35.7019C59.273 36.2605 58.8723 36.954 58.6657 37.7143C58.5078 38.2339 58.4028 38.7681 58.3522 39.3088C58.2977 39.8949 58.2886 40.5218 58.2705 41.185C58.2654 41.8809 58.2168 42.5758 58.1251 43.2656C58.0709 43.6313 57.9905 43.9927 57.8843 44.3468C57.7923 44.7283 57.6047 45.08 57.3392 45.3689C57.2189 45.4798 57.0723 45.558 56.9133 45.5962C56.7543 45.6343 56.5881 45.6312 56.4306 45.587C56.1246 45.5013 55.8561 45.3158 55.6675 45.06C55.3695 44.555 55.2126 43.9792 55.2132 43.3928L55.3404 43.4201C55.1001 43.8813 54.794 44.3052 54.4318 44.6784C54.0878 45.0231 53.624 45.2216 53.1371 45.2327C52.9119 45.2344 52.6904 45.1747 52.4966 45.06C52.3174 44.9447 52.1766 44.7787 52.0923 44.583C52.014 44.4015 51.9858 44.2023 52.0105 44.0061C52.0393 43.8305 52.1275 43.6702 52.2604 43.5518L52.3194 43.62C51.7965 44.1285 51.142 44.481 50.4296 44.6376C50.3796 44.6532 50.3275 44.6608 50.2751 44.6603C50.3222 44.6409 50.3708 44.6257 50.4205 44.6148C50.5205 44.583 50.6658 44.5422 50.8475 44.4695C51.3729 44.2636 51.8517 43.9547 52.2558 43.5609L52.3194 43.6291C52.2033 43.7522 52.1283 43.9084 52.1047 44.076C52.0811 44.2436 52.1101 44.4144 52.1877 44.5649C52.265 44.7395 52.3933 44.8867 52.5556 44.9873C52.7314 45.0917 52.9327 45.1452 53.1371 45.1418C53.5913 45.1239 54.0217 44.9339 54.341 44.6103C54.6861 44.2433 54.9768 43.8287 55.2041 43.3792L55.3131 43.1839V43.4065C55.323 43.9685 55.4796 44.5181 55.7674 45.001C55.9403 45.2212 56.179 45.3804 56.4488 45.4553C56.5847 45.4949 56.7286 45.4986 56.8664 45.4659C57.0041 45.4333 57.1311 45.3654 57.2347 45.269C57.4794 44.9978 57.6527 44.67 57.739 44.315C57.845 43.967 57.9255 43.6117 57.9797 43.252C58.0711 42.5682 58.1212 41.8794 58.1297 41.1896C58.1297 40.5263 58.166 39.8994 58.225 39.3088C58.2822 38.7598 58.3949 38.218 58.5612 37.6916C58.7824 36.9204 59.2059 36.2224 59.7878 35.6701C60.0022 35.4664 60.2494 35.3006 60.5192 35.1794Z" fill="#455A64"/>
<path d="M79.54 43.152L79.4855 43.1884L79.3174 43.2883C79.2272 43.345 79.1331 43.3951 79.0357 43.4382C78.9176 43.4882 78.7859 43.5564 78.6314 43.6063C77.7456 43.9105 76.7985 43.9917 75.8739 43.8426C74.4987 43.6233 73.2161 43.0112 72.1806 42.0799C70.9359 40.9307 69.9388 39.5395 69.2505 37.9914C68.8599 37.1828 68.5555 36.3606 68.2102 35.5974C67.8996 34.8545 67.4818 34.1612 66.97 33.5395C66.514 32.9745 65.9214 32.5352 65.2483 32.263C64.9442 32.1472 64.6239 32.0797 64.2989 32.0631C63.9935 32.0511 63.688 32.0802 63.3903 32.1494C62.4913 32.3658 61.7074 32.9143 61.1962 33.6848C61.0248 33.9713 60.8861 34.276 60.7828 34.5934C60.7798 34.5723 60.7798 34.5509 60.7828 34.5298C60.7828 34.4753 60.81 34.4162 60.8282 34.339C60.9007 34.095 61.0045 33.8613 61.1371 33.644C61.3485 33.2981 61.6173 32.9908 61.9321 32.7354C62.3491 32.399 62.8343 32.1571 63.354 32.0267C63.9879 31.8632 64.6565 31.8965 65.271 32.1221C65.9648 32.4 66.5773 32.8484 67.0518 33.4259C67.5728 34.0561 67.9997 34.7584 68.3193 35.5111C68.6691 36.2833 68.9734 37.101 69.3596 37.9051C70.0431 39.4335 71.0255 40.8097 72.2488 41.9527C73.2668 42.8756 74.528 43.4873 75.883 43.7154C76.7937 43.8729 77.7289 43.8074 78.6087 43.5246C79.2265 43.3383 79.5309 43.1157 79.54 43.152Z" fill="#455A64"/>
<path d="M74.3155 49.4756C74.1792 49.5937 73.5023 48.935 72.4438 48.8124C71.3854 48.6897 70.5449 49.1304 70.4495 48.985C70.3996 48.9169 70.5495 48.6988 70.9038 48.4853C71.3977 48.2172 71.9638 48.1122 72.5211 48.1855C73.0735 48.2504 73.5899 48.4927 73.9929 48.876C74.3018 49.1803 74.3836 49.4347 74.3155 49.4756Z" fill="#263238"/>
<path d="M73.4161 51.4472C73.3824 51.6698 73.2625 51.8703 73.0824 52.0054C72.9022 52.1405 72.6762 52.1995 72.453 52.1695C72.344 52.1599 72.238 52.1286 72.1413 52.0775C72.0445 52.0264 71.9589 51.9564 71.8896 51.8718C71.8202 51.7872 71.7684 51.6896 71.7372 51.5847C71.706 51.4798 71.6961 51.3697 71.708 51.2609C71.7429 51.0397 71.8623 50.8407 72.0412 50.7059C72.22 50.5712 72.4443 50.5112 72.6665 50.5386C72.7757 50.5483 72.8819 50.5796 72.9789 50.6306C73.0758 50.6817 73.1617 50.7515 73.2315 50.8361C73.3012 50.9206 73.3534 51.0182 73.3851 51.1231C73.4168 51.228 73.4274 51.3382 73.4161 51.4472Z" fill="#263238"/>
<path d="M77.5909 37.9687C78.0452 38.7365 78.813 39.4724 79.7079 39.4724C80.036 39.438 80.361 39.3788 80.68 39.2952C80.9708 39.5133 80.7891 40.5672 80.5438 40.8352C80.3168 41.062 80.0705 41.2687 79.8078 41.453C80.7891 42.1208 81.7658 41.9437 82.9151 41.6575C82.7055 42.5909 82.2551 43.4533 81.6087 44.1586C80.9624 44.864 80.1426 45.3877 79.2309 45.6779C78.9476 45.7936 78.6409 45.8404 78.3361 45.8143C78.0312 45.7883 77.7369 45.6901 77.4774 45.5279C77.0996 45.1391 76.8781 44.6249 76.855 44.0833C76.5553 42.1293 76.4989 40.1456 76.6869 38.1777L77.5909 37.9687Z" fill="#263238"/>
<path d="M65.857 73.825C65.857 73.825 69.8547 75.4468 72.1306 80.9799C73.7297 84.8686 82.6245 97.1432 82.6245 97.1432L106.274 102.395L107.083 109.94L69.255 109.627L63.999 92.8866L65.857 73.825Z" fill="#26C5D8"/>
<path d="M49.9297 66.8518L45.7321 68.6145C41.848 70.2408 36.8782 73.9886 35.211 77.859C31.2088 87.1809 27.5836 99.1602 26.1935 109.759C24.7898 120.448 27.5836 136.266 27.5836 136.266L63.0811 115.982L61.005 114.533L67.7329 77.9363L66.4791 73.507L67.315 69.7592C67.315 69.7592 57.8977 65.9796 51.0381 63.2676L49.9297 66.8518Z" fill="#26C5D8"/>
<g opacity="0.3">
<path opacity="0.3" d="M46.5408 125.69C46.671 123.873 46.8012 122.045 46.9315 120.207C46.5151 120.604 45.9702 120.837 45.396 120.866C46.284 120.018 47.0721 119.072 47.7446 118.045L46.1274 118.74C46.6978 118.301 47.1633 117.741 47.4902 117.1C46.6226 116.423 45.4005 116.536 44.3103 116.645C38.6999 117.213 33.0396 116.836 27.4065 116.459C26.8423 116.427 26.2919 116.272 25.7938 116.005C25.7938 116.005 25.6802 114.46 25.9301 113.883C26.18 113.307 26.5706 113.475 27.1612 113.261C27.7608 113.079 28.3835 112.984 29.0101 112.979C35.8652 112.616 42.7339 113.179 49.5754 113.747C50.002 113.741 50.4209 113.861 50.7792 114.092C51.338 114.547 51.288 115.401 51.1926 116.114C50.8413 118.676 50.493 121.237 50.1478 123.796" fill="black"/>
</g>
<path d="M67.3148 76.4644C67.3144 76.5802 67.3037 76.6957 67.283 76.8097L67.1376 77.7864C67.0104 78.6313 66.806 79.8579 66.538 81.3661C66.0019 84.3871 65.1979 88.5437 64.2666 93.1229C63.3353 97.702 62.3904 101.84 61.7135 104.83C61.3728 106.306 61.0957 107.51 60.8958 108.369C60.8004 108.768 60.7232 109.086 60.6642 109.327C60.643 109.441 60.6095 109.552 60.5642 109.659C60.576 109.544 60.5942 109.43 60.6187 109.318C60.6641 109.073 60.7277 108.75 60.8095 108.35C60.9867 107.483 61.2638 106.279 61.55 104.793L64.0122 93.0865C64.9662 88.5074 65.7975 84.3553 66.3744 81.3434C66.6516 79.8579 66.8832 78.645 67.0468 77.7773C67.124 77.3775 67.1876 77.055 67.233 76.8097C67.2486 76.6921 67.276 76.5765 67.3148 76.4644Z" fill="#263238"/>
<path d="M35.2109 128.42C35.2745 128.342 35.346 128.27 35.4244 128.207L36.0604 127.621C36.333 127.366 36.6783 127.062 37.0917 126.712C37.5051 126.363 37.9593 125.972 38.4954 125.568C39.5448 124.727 40.8395 123.787 42.3159 122.801C43.7923 121.815 45.4958 120.816 47.2812 119.853C49.0665 118.89 50.8791 118.09 52.5236 117.413C54.168 116.736 55.6763 116.214 56.9619 115.823C57.5979 115.61 58.1884 115.455 58.7018 115.31C59.2151 115.165 59.6603 115.051 60.0237 114.965L60.8687 114.774C60.9644 114.743 61.0636 114.725 61.164 114.719C61.0722 114.762 60.9763 114.796 60.8778 114.819L60.0464 115.055C59.6875 115.155 59.2469 115.278 58.7381 115.437C58.2293 115.596 57.6478 115.76 57.0118 115.982C55.7398 116.396 54.2407 116.945 52.6053 117.618C50.9699 118.29 49.2028 119.112 47.3947 120.062C45.5867 121.011 43.9195 122.02 42.434 122.983C40.9485 123.946 39.6538 124.882 38.5953 125.708C38.0547 126.104 37.5914 126.494 37.1734 126.821C36.7555 127.148 36.4057 127.448 36.1195 127.689L35.4562 128.239C35.3812 128.308 35.299 128.369 35.2109 128.42Z" fill="#263238"/>
<path d="M53.4322 115.024C53.464 115.083 50.0114 117.022 45.7094 119.357C41.4074 121.692 37.9185 123.541 37.8867 123.482C37.8549 123.423 41.3074 121.488 45.6095 119.149C49.9115 116.809 53.4004 114.969 53.4322 115.024Z" fill="#263238"/>
<g opacity="0.3">
<path opacity="0.3" d="M40.958 86.9855C43.1613 96.5254 49.8982 105.039 58.8657 108.923C52.4146 102.017 46.432 94.6886 40.958 86.9855Z" fill="black"/>
</g>
<g opacity="0.3">
<path opacity="0.3" d="M66.7518 79.7352C67.6195 83.7692 66.9744 88.8208 64.9347 92.396L64.4304 91.3511C65.1436 88.3211 66.1658 82.947 66.7336 79.7352" fill="black"/>
</g>
<path d="M85.6225 175.997L81.3659 188.799C81.3659 188.799 92.9546 197.43 92.3959 199.87L67.2742 192.51L73.0844 172.286L85.6225 175.997Z" fill="#455A64"/>
<g opacity="0.3">
<path opacity="0.3" d="M85.6225 175.997L81.3659 188.799C81.3659 188.799 92.9546 197.43 92.3959 199.87L67.2742 192.51L73.0844 172.286L85.6225 175.997Z" fill="black"/>
</g>
<path d="M73.9156 185.437C73.6525 185.439 73.3995 185.539 73.2057 185.717C73.0119 185.895 72.8909 186.138 72.8662 186.4C72.8584 186.663 72.9523 186.919 73.1283 187.114C73.3043 187.31 73.5488 187.43 73.8111 187.45C74.0902 187.446 74.3581 187.339 74.5629 187.15C74.7677 186.96 74.8948 186.701 74.9195 186.423C74.8985 186.148 74.7717 185.892 74.5658 185.709C74.3599 185.526 74.0909 185.43 73.8156 185.442" fill="#E0E0E0"/>
<g opacity="0.6">
<path opacity="0.6" d="M67.2742 192.51L67.9374 190.493L91.778 198.302C91.778 198.302 92.7547 199.115 92.3959 199.87L67.2742 192.51Z" fill="white"/>
</g>
<path d="M81.811 188.79C81.7701 188.912 81.1432 188.79 80.4209 189.008C79.6986 189.226 79.2307 189.644 79.1308 189.562C79.0308 189.48 79.4215 188.826 80.2983 188.581C81.175 188.335 81.8701 188.685 81.811 188.79Z" fill="#263238"/>
<path d="M84.128 190.652C84.128 190.779 83.5284 190.834 82.9605 191.229C82.3927 191.624 82.111 192.138 81.9884 192.097C81.8657 192.056 81.9884 191.343 82.7107 190.861C83.433 190.38 84.1598 190.534 84.128 190.652Z" fill="#263238"/>
<path d="M84.7003 194.246C84.5822 194.246 84.5913 193.578 85.1001 192.996C85.6089 192.415 86.2676 192.315 86.2857 192.433C86.3039 192.551 85.8315 192.806 85.4362 193.287C85.041 193.769 84.8275 194.268 84.7003 194.246Z" fill="#263238"/>
<path d="M82.4561 185.76C82.3744 185.86 81.861 185.523 81.1524 185.369C80.4437 185.215 79.8395 185.274 79.7895 185.146C79.7395 185.019 80.4028 184.738 81.2341 184.933C82.0655 185.128 82.547 185.687 82.4561 185.76Z" fill="#263238"/>
<path d="M92.9501 181.712L92.4186 195.195C92.4186 195.195 105.947 200.26 106.088 202.763L79.9123 202.672L79.8623 181.63L92.9501 181.712Z" fill="#455A64"/>
<path d="M84.328 194.032C84.0755 194.107 83.8597 194.273 83.7222 194.498C83.5846 194.723 83.5351 194.99 83.583 195.25C83.6497 195.505 83.8119 195.724 84.036 195.863C84.2601 196.001 84.5289 196.049 84.7869 195.995C85.0533 195.914 85.2803 195.738 85.4239 195.499C85.5674 195.261 85.6172 194.978 85.5637 194.704C85.4681 194.446 85.2759 194.235 85.0276 194.115C84.7793 193.996 84.4943 193.977 84.2326 194.064" fill="#E0E0E0"/>
<g opacity="0.6">
<path opacity="0.6" d="M79.9121 202.672L79.9893 200.551L105.061 201.428C105.061 201.428 106.224 201.941 106.088 202.763L79.9121 202.672Z" fill="white"/>
</g>
<path d="M92.8457 195.063C92.8457 195.19 92.2006 195.245 91.5692 195.654C90.9377 196.063 90.6016 196.599 90.4835 196.562C90.3653 196.526 90.5607 195.772 91.333 195.29C92.1052 194.809 92.873 194.945 92.8457 195.063Z" fill="#263238"/>
<path d="M95.5849 196.208C95.6122 196.331 95.058 196.544 94.6219 197.085C94.1858 197.625 94.0586 198.198 93.9314 198.189C93.8042 198.18 93.7269 197.462 94.2812 196.799C94.8354 196.135 95.5849 196.085 95.5849 196.208Z" fill="#263238"/>
<path d="M97.1246 199.497C97.0065 199.524 96.8339 198.884 97.161 198.189C97.4881 197.494 98.0923 197.212 98.1468 197.316C98.2013 197.421 97.8288 197.798 97.5653 198.375C97.3018 198.952 97.2609 199.488 97.1246 199.497Z" fill="#263238"/>
<path d="M92.623 191.974C92.5685 192.092 91.9825 191.915 91.2601 191.974C90.5378 192.033 89.9745 192.247 89.8973 192.138C89.8201 192.029 90.3516 191.574 91.2284 191.529C92.1051 191.484 92.6866 191.874 92.623 191.974Z" fill="#263238"/>
<path d="M61.591 115.687C61.591 115.687 92.9681 123.864 96.8658 129.274C100.155 133.867 82.8831 180.763 82.8831 180.763L69.2547 179.586L75.133 140.345L39.9763 129.17L45.2869 115.669L61.591 115.687Z" fill="#263238"/>
<path d="M63.8401 123.037C63.8401 123.037 95.9168 130.828 99.1603 136.366C100.673 138.951 99.6782 147.437 99.1149 151.443C98.7333 154.142 93.0639 191.901 93.0639 191.901H79.1947L79.4991 149.254L46.1731 142.535C46.1731 142.535 28.2836 143.898 27.584 136.266L35.0523 126.144L52.6784 117.436L63.8401 123.037Z" fill="#263238"/>
<path d="M61.3959 122.056C61.3959 122.056 61.5549 122.092 61.8501 122.179L63.213 122.556L68.4463 124.018C70.7177 124.654 73.4979 125.431 76.7096 126.385C79.9214 127.339 83.5602 128.493 87.5079 129.988C89.4855 130.727 91.5267 131.569 93.6316 132.513L95.2215 133.231C95.7573 133.493 96.2789 133.782 96.7843 134.099C97.3012 134.423 97.7891 134.79 98.2425 135.198C98.7138 135.613 99.1089 136.106 99.41 136.656C100.491 141.572 99.837 146.946 99.033 152.438C98.6832 155.205 98.2334 158.026 97.8109 160.91C97.3885 163.795 96.9387 166.748 96.489 169.746C95.5804 175.747 94.6719 181.962 93.7088 188.322C93.5271 189.526 93.3499 190.725 93.1682 191.915V192.02H79.0855V191.901C79.2082 175.738 79.3217 161.101 79.4126 149.258L79.4853 149.345L55.7855 144.525L49.3211 143.198L47.6403 142.848C47.2587 142.767 47.0679 142.717 47.0679 142.717L47.6448 142.821L49.3347 143.148L55.8264 144.42L79.5171 149.154H79.5898V149.231C79.5125 161.074 79.4171 175.711 79.3127 191.879L79.1945 191.761H93.0592L92.9456 191.861C93.1228 190.666 93.3045 189.471 93.4817 188.267L96.2664 169.692C96.7207 166.687 97.1628 163.742 97.5929 160.856C98.0199 157.971 98.4742 155.15 98.8285 152.384C99.0163 151.003 99.1995 149.64 99.3782 148.295C99.5694 146.972 99.6877 145.639 99.7326 144.302C99.778 142.985 99.778 141.687 99.7326 140.409C99.7053 139.768 99.6689 139.137 99.6144 138.51C99.6092 137.895 99.4842 137.287 99.2465 136.72C98.9577 136.19 98.5778 135.715 98.1244 135.316C97.6813 134.916 97.204 134.556 96.698 134.24C96.1998 133.923 95.6841 133.635 95.1534 133.377L93.5725 132.654C91.4737 131.714 89.434 130.864 87.4624 130.124C83.5238 128.62 79.8851 127.471 76.6824 126.49C73.4797 125.508 70.6995 124.736 68.4327 124.087L63.2084 122.615L61.8456 122.215C61.5503 122.11 61.3959 122.056 61.3959 122.056Z" fill="#455A64"/>
<path d="M105.82 102.767C106.024 102.458 108.673 99.401 109.386 99.401C110.099 99.401 110.917 100.219 110.917 100.219C111.394 99.9998 111.925 99.9286 112.443 100.014C113.057 100.219 115.909 102.663 115.909 103.58V105.111C115.974 105.516 115.974 105.929 115.909 106.333C115.81 107.047 114.092 108.269 114.092 108.269H104.294C104.294 108.269 102.426 107.01 102.658 105.824C102.89 104.639 105.82 102.767 105.82 102.767Z" fill="#FFBE9D"/>
<path d="M110.917 100.219C111.129 100.316 111.333 100.431 111.526 100.564L113.143 101.586C113.33 101.695 113.509 101.816 113.679 101.95C113.859 102.116 113.995 102.326 114.074 102.558C114.136 102.805 114.165 103.058 114.16 103.312L114.201 104.094C114.256 105.161 114.31 106.333 114.369 107.56L114.397 108.114V108.214L114.301 108.237L113.702 108.382H113.674C113.394 108.374 113.124 108.273 112.907 108.096C112.706 107.93 112.538 107.728 112.411 107.501C112.181 107.087 112.008 106.644 111.898 106.183C111.707 105.414 111.595 104.627 111.562 103.835L111.616 103.907L109.904 103.235C109.692 103.161 109.487 103.068 109.291 102.958C109.511 103.003 109.727 103.067 109.936 103.149L111.671 103.753H111.721V103.808C111.773 104.587 111.9 105.36 112.098 106.115C112.209 106.554 112.379 106.975 112.602 107.369C112.7 107.577 112.85 107.755 113.037 107.888C113.224 108.021 113.442 108.104 113.67 108.128H113.643L114.242 107.978L114.151 108.1L114.124 107.542C114.074 106.315 114.02 105.148 113.974 104.076C113.974 103.808 113.974 103.549 113.947 103.294C113.951 103.058 113.929 102.821 113.879 102.59C113.816 102.387 113.702 102.204 113.547 102.059C113.386 101.928 113.217 101.807 113.043 101.695L111.467 100.614C111.272 100.498 111.088 100.366 110.917 100.219Z" fill="#EB996E"/>
<path d="M104.293 107.919C104.509 107.872 104.728 107.844 104.948 107.832L106.733 107.692H106.76C107.424 107.848 108.096 107.969 108.773 108.055C109.163 108.108 109.556 108.14 109.949 108.15C110.14 108.182 110.336 108.17 110.522 108.117C110.708 108.064 110.88 107.97 111.026 107.842C111.148 107.668 111.207 107.458 111.194 107.246C111.194 107.024 111.162 106.792 111.153 106.556C111.127 106.363 111.034 106.186 110.89 106.056C110.746 105.912 110.582 105.79 110.404 105.693C109.755 105.366 109.026 105.237 108.305 105.32C108.046 105.344 107.786 105.307 107.545 105.21C107.304 105.114 107.09 104.962 106.919 104.766C106.706 104.462 106.724 104.239 106.737 104.244C106.797 104.408 106.883 104.561 106.992 104.698C107.162 104.868 107.369 104.997 107.596 105.076C107.823 105.155 108.066 105.181 108.305 105.152C109.057 105.04 109.826 105.161 110.508 105.497C110.706 105.603 110.888 105.736 111.049 105.893C111.238 106.064 111.357 106.298 111.385 106.551C111.385 106.76 111.43 107.006 111.43 107.242C111.443 107.508 111.364 107.771 111.208 107.987C111.049 108.17 110.833 108.294 110.594 108.337C110.38 108.377 110.162 108.391 109.945 108.378C109.527 108.378 109.127 108.323 108.745 108.273C108.061 108.175 107.383 108.037 106.715 107.86H106.742L104.957 107.923C104.736 107.945 104.514 107.944 104.293 107.919Z" fill="#EB996E"/>
<path d="M114.265 107.878C114.492 107.27 114.756 106.677 115.055 106.102C115.286 105.491 115.591 104.911 115.964 104.375C115.807 105.006 115.577 105.616 115.278 106.192C115.046 106.812 114.703 107.383 114.265 107.878Z" fill="#EB996E"/>
<path d="M93.0362 109.945L128.329 110.399L139.686 78.5359C139.807 78.217 139.802 77.8637 139.671 77.5486C139.54 77.2335 139.294 76.9805 138.982 76.8414C138.814 76.7636 138.632 76.7214 138.447 76.7176C138.262 76.7138 138.079 76.7484 137.908 76.8193C137.737 76.8902 137.583 76.9958 137.455 77.1294C137.327 77.2631 137.228 77.4218 137.165 77.5955L125.967 107.769L93.0044 108.096C92.7634 108.096 92.5323 108.192 92.3619 108.362C92.1915 108.532 92.0958 108.764 92.0958 109.004C92.0913 109.129 92.1126 109.253 92.1583 109.37C92.204 109.486 92.2731 109.591 92.3613 109.679C92.4495 109.768 92.555 109.837 92.6711 109.882C92.7872 109.928 92.9115 109.949 93.0362 109.945Z" fill="#263238"/>
<path d="M40.4445 86.2723C40.4445 86.2723 57.7071 109.74 60.3828 109.74H85.5726V100.201L66.5247 95.7077C66.5247 95.7077 57.1483 76.31 55.0677 73.825C52.9871 71.3401 47.4404 67.9921 43.2928 71.7354C39.1452 75.4786 40.4445 86.2723 40.4445 86.2723Z" fill="#26C5D8"/>
<path d="M85.5542 101.141L89.6836 100.809C89.6836 100.809 89.7699 99.2783 90.6739 98.7377C91.578 98.1971 91.4826 97.0251 92.0368 97.1159C92.3368 97.175 92.6454 97.175 92.9453 97.1159L96.3661 94.2358L99.2507 92.346L101.522 91.8917C101.522 91.8917 102.885 92.2506 101.522 93.509L100.078 94.3221L98.8192 95.585L101.699 94.1677C101.832 94.1037 101.977 94.0705 102.124 94.0705C102.271 94.0705 102.416 94.1037 102.549 94.1677C103.328 94.5044 104.071 94.9199 104.766 95.4079C104.828 95.4661 104.877 95.5364 104.911 95.6146C104.945 95.6927 104.963 95.777 104.963 95.8621C104.963 95.9473 104.945 96.0316 104.911 96.1097C104.877 96.1878 104.828 96.2582 104.766 96.3164L106.024 97.3976C106.024 97.3976 106.297 98.8422 104.852 98.4788L103.685 98.2108L102.122 99.7281C102.122 99.7281 107.351 98.6469 107.709 98.8195C108.068 98.9921 108.523 99.8098 107.709 100.528C106.896 101.245 103.744 101.068 103.026 101.79C102.308 102.513 97.5381 106.865 96.3661 107.133C95.194 107.401 85.5815 109.749 85.5815 109.749L85.5542 101.141Z" fill="#FFBE9D"/>
<path d="M105.988 97.384C105.741 97.2333 105.504 97.0663 105.28 96.8843C105.066 96.7253 104.825 96.539 104.516 96.3391C104.371 96.2392 104.22 96.1393 104.062 96.0393C103.921 95.9345 103.755 95.8673 103.581 95.844C103.223 95.9213 102.882 96.0646 102.577 96.2665C102.268 96.4345 101.995 96.5935 101.763 96.7207C101.525 96.8881 101.269 97.0282 101 97.1387C101.191 96.9185 101.417 96.7313 101.668 96.5844C101.891 96.43 102.159 96.2528 102.468 96.0711C102.622 95.9803 102.786 95.8894 102.958 95.7985C103.146 95.69 103.355 95.6248 103.571 95.6078C103.634 95.5951 103.699 95.5951 103.762 95.6078C103.815 95.6254 103.867 95.6466 103.917 95.6713C104.009 95.7159 104.099 95.7659 104.185 95.8213C104.353 95.9257 104.507 96.0302 104.639 96.1393C104.925 96.3482 105.175 96.5527 105.38 96.7298C105.793 97.1023 106.015 97.3613 105.988 97.384Z" fill="#EB996E"/>
<path d="M93.3361 96.7662C93.3724 96.8207 92.9454 97.1932 92.4275 97.6747C91.9096 98.1563 91.519 98.556 91.469 98.5061C91.6605 98.1193 91.9314 97.7772 92.264 97.5021C92.5555 97.1725 92.9237 96.9198 93.3361 96.7662Z" fill="#EB996E"/>
<path d="M55.0675 73.825C55.4379 74.2813 55.7721 74.7658 56.0669 75.2742C56.662 76.26 57.5025 77.7318 58.511 79.6353C60.5416 83.4421 63.3354 88.9616 66.6108 95.6804L66.5472 95.6259L85.5997 100.105H85.6905V109.895H84.4322H63.0219H60.587C60.4811 109.901 60.3749 109.901 60.269 109.895C60.1619 109.874 60.058 109.839 59.9601 109.79C59.7698 109.69 59.5889 109.573 59.4195 109.441C59.1029 109.205 58.7996 108.951 58.511 108.682C57.4076 107.643 56.3597 106.547 55.3719 105.397C53.4366 103.199 51.7376 101.077 50.1704 99.133C47.0722 95.2352 44.6509 92.0144 42.9882 89.7884L41.0848 87.2081C40.8758 86.9128 40.7168 86.6902 40.5987 86.5312C40.4806 86.3722 40.4397 86.295 40.4397 86.295C40.4397 86.295 40.5033 86.3677 40.6214 86.5176L41.1257 87.1809L43.0654 89.7248C44.7508 91.9372 47.1948 95.1398 50.3067 99.0239C51.8648 100.959 53.5866 103.072 55.5218 105.266C56.5098 106.405 57.556 107.492 58.6563 108.523C58.9446 108.787 59.248 109.034 59.5649 109.263C59.7199 109.375 59.884 109.474 60.0555 109.559C60.2235 109.64 60.4106 109.673 60.5961 109.654H63.031H84.4412H85.5815L85.4634 109.772C85.4634 106.501 85.4634 103.303 85.4634 100.232L85.5497 100.346L66.5017 95.8122H66.4563L66.4336 95.7713C63.181 89.0434 60.4098 83.5057 58.411 79.6943C57.4161 77.7818 56.5939 76.3054 56.0124 75.3105C55.7171 74.8199 55.4945 74.4383 55.3174 74.2021C55.1402 73.9658 55.0675 73.825 55.0675 73.825Z" fill="#263238"/>
<path d="M52.56 72.2896C52.56 72.3305 51.9694 72.0942 51.0063 71.8762C50.4405 71.7507 49.8668 71.6642 49.2891 71.6173C48.583 71.563 47.8738 71.563 47.1677 71.6173C46.4636 71.6912 45.7664 71.8203 45.0825 72.0034C44.5233 72.1561 43.9753 72.3473 43.4426 72.5758C42.534 72.971 42.0161 73.3072 41.9934 73.2708C42.0959 73.1676 42.2121 73.079 42.3387 73.0073C42.6697 72.7892 43.0158 72.5949 43.3744 72.4259C43.9062 72.1701 44.4576 71.9574 45.0235 71.7899C45.717 71.5914 46.427 71.4561 47.1449 71.3856C47.8642 71.3196 48.588 71.3196 49.3073 71.3856C49.8944 71.4456 50.4761 71.5504 51.0472 71.699C51.4299 71.799 51.8049 71.9266 52.1693 72.0806C52.4282 72.1896 52.569 72.2714 52.56 72.2896Z" fill="#263238"/>
<path d="M63.054 100.064C63.3352 99.2492 63.7718 98.4963 64.3396 97.8474C64.8446 97.1473 65.482 96.5531 66.2157 96.0984C66.2612 96.1529 65.389 96.8979 64.5213 97.9927C63.6536 99.0875 63.1221 100.096 63.054 100.064Z" fill="#263238"/>
<path d="M62.4768 97.1387C63.4422 96.2837 64.6997 95.8331 65.9884 95.8803C65.9884 95.953 65.1571 96.0393 64.1713 96.3937C63.1855 96.748 62.5177 97.1977 62.4768 97.1387Z" fill="#263238"/>
<path d="M78.6631 146.128C78.2997 145.37 77.4184 145.038 76.6143 144.765C60.7463 139.65 43.7199 137.197 27.3158 140.177C25.3443 140.536 23.3091 141.004 21.7418 142.258C20.1746 143.512 19.2342 145.783 20.0701 147.6L23.4363 148.681C40.2333 146.811 57.1922 146.93 73.9613 149.036C75.0925 149.181 76.2827 149.322 77.3275 148.877C78.3724 148.431 79.1583 147.146 78.6631 146.128Z" fill="#455A64"/>
<path d="M60.2511 140.881C60.2151 140.888 60.1781 140.888 60.1421 140.881L59.8377 140.84L58.6611 140.668C57.6435 140.504 56.1671 140.268 54.3318 140.059C49.5596 139.495 44.7536 139.266 39.9493 139.373C38.5456 139.4 37.1737 139.468 35.8608 139.578C34.5479 139.687 33.2669 139.75 32.0449 139.859C31.8937 139.872 31.7417 139.872 31.5906 139.859C31.4485 139.846 31.3056 139.846 31.1636 139.859C30.876 139.879 30.5904 139.921 30.3095 139.986L28.665 140.332C27.6065 140.568 26.6344 140.827 25.7576 141.118C24.3726 141.549 23.0501 142.16 21.8236 142.935C21.3693 143.212 21.0695 143.453 20.8559 143.621L20.6106 143.807C20.5561 143.848 20.5243 143.87 20.5198 143.866L20.5925 143.789L20.8241 143.584C21.1263 143.324 21.4433 143.081 21.7736 142.857C22.9906 142.042 24.3144 141.398 25.7077 140.945C26.6639 140.624 27.6358 140.351 28.6196 140.127L30.2686 139.773C30.5665 139.698 30.8706 139.651 31.1772 139.632C31.3283 139.619 31.4803 139.619 31.6315 139.632C31.7824 139.649 31.9348 139.649 32.0857 139.632C33.2896 139.518 34.5797 139.441 35.9017 139.337C37.2236 139.232 38.6274 139.155 39.9902 139.128C44.7903 139.018 49.5919 139.269 54.3545 139.877C56.1717 140.109 57.6617 140.373 58.6747 140.563L59.8468 140.781L60.1466 140.845L60.2511 140.881Z" fill="#263238"/>
<path d="M20.4834 115.024L47.5313 115.969C47.6255 115.972 47.7179 115.995 47.8026 116.037C47.8872 116.078 47.9622 116.137 48.0226 116.21C48.083 116.282 48.1275 116.366 48.1532 116.457C48.1789 116.548 48.1852 116.643 48.1718 116.736L44.2786 149.172H50.3751L53.5187 113.465C53.5541 113.177 53.5293 112.885 53.4458 112.607C53.3622 112.329 53.2218 112.071 53.0334 111.851C52.8451 111.63 52.6128 111.451 52.3515 111.324C52.0901 111.198 51.8054 111.127 51.5153 111.117L19.7566 109.981L20.4834 115.024Z" fill="#455A64"/>
<path d="M164.231 112.661H159.993V113.602L169.324 202.791H173.676L164.231 112.661Z" fill="#455A64"/>
<path d="M69.6048 112.661H73.8432V113.62L65.1438 202.763H60.7917L69.6048 112.661Z" fill="#455A64"/>
<path d="M69.6046 112.661C69.6046 112.661 69.6046 112.82 69.5683 113.116C69.5319 113.411 69.4956 113.883 69.4411 114.479C69.3275 115.673 69.164 117.436 68.9505 119.698C68.4962 124.241 67.8829 130.796 67.1061 138.928C65.5252 155.173 63.3401 177.683 60.9052 202.759L60.7916 202.627H65.1436L65.0255 202.736C69.1504 160.861 72.6438 125.386 73.8067 113.602C73.8067 113.147 73.8067 112.893 73.8067 112.643L73.8385 112.675H70.6586H69.8772H69.6183H69.8681H70.6404L73.8567 112.652H73.8885V112.689C73.8885 112.939 73.8885 113.202 73.8885 113.647C72.7483 125.431 69.3184 160.892 65.2572 202.795V202.904H60.6689V202.772C63.1402 177.669 65.3617 155.132 66.9653 138.869C67.7784 130.751 68.428 124.2 68.8823 119.671C69.1095 117.4 69.2866 115.673 69.4047 114.479C69.4683 113.893 69.5138 113.443 69.5456 113.116C69.5774 112.789 69.6046 112.661 69.6046 112.661Z" fill="#263238"/>
<path d="M180.708 109.759H59.4062V113.597H180.708V109.759Z" fill="#455A64"/>
<path d="M167.793 113.602C167.793 113.665 143.616 113.72 113.802 113.72C83.9871 113.72 59.8013 113.665 59.8013 113.602C59.8013 113.538 83.9735 113.484 113.802 113.484C143.63 113.484 167.793 113.529 167.793 113.602Z" fill="#263238"/>
</svg>
