<svg width="92" height="92" viewBox="0 0 92 92" fill="none" xmlns="http://www.w3.org/2000/svg">
<path d="M42.1667 7.86133C34.4693 8.628 27.4382 11.6868 21.7572 16.3366L27.2227 21.8021C31.4623 18.5054 36.5777 16.2969 42.1667 15.5954V7.86133ZM49.8333 7.86133V15.6029C64.9367 17.5004 76.6667 30.3982 76.6667 46.0075C76.6667 61.6168 64.9367 74.5071 49.8333 76.4046V84.1462C69.1763 82.2142 84.3333 65.8488 84.3333 46.0075C84.3333 26.1662 69.1763 9.78949 49.8333 7.86133ZM16.3366 21.7572C11.6829 27.4382 8.62799 34.4693 7.86133 42.1667H15.5954C16.2969 36.5777 18.5054 31.4623 21.8021 27.2227L16.3366 21.7572ZM62.4564 31.7897L42.1667 52.0794L33.377 43.2897L27.9564 48.7103L42.1667 62.9206L67.877 37.2103L62.4564 31.7897ZM7.86133 49.8258C8.62799 57.527 11.6829 64.5618 16.3366 70.2428L21.8096 64.7699C18.5129 60.5302 16.3044 55.4148 15.6029 49.8258H7.86133ZM27.2227 70.1979L21.7572 75.6634C27.4382 80.3132 34.4618 83.372 42.1592 84.1387V76.4046C36.5731 75.7021 31.4605 73.4931 27.2227 70.1979Z" fill="#26C5D8"/>
</svg>
